<svg width="1168" height="758" viewBox="0 0 1168 758" fill="none" xmlns="http://www.w3.org/2000/svg">
<rect x="16" y="16" width="560" height="322" fill="#F2F4F8" stroke="#491D8B" stroke-linecap="round" stroke-dasharray="2 4"/>
<rect x="16" y="354" width="1136" height="186" fill="#F2F4F8" stroke="#491D8B" stroke-linecap="round" stroke-dasharray="2 4"/>
<rect x="592" y="16" width="560" height="322" fill="#F2F4F8" stroke="#491D8B" stroke-linecap="round" stroke-dasharray="2 4"/>
<rect x="592" y="556" width="560" height="186" fill="#F2F4F8" stroke="#491D8B" stroke-linecap="round" stroke-dasharray="2 4"/>
<rect x="16" y="556" width="560" height="186" fill="#F2F4F8" stroke="#491D8B" stroke-linecap="round" stroke-dasharray="2 4"/>
<path d="M615.07 586H616.918V576.228H615.07V580.232H610.996V576.228H609.148V586H610.996V581.87H615.07V586ZM621.064 586.168C622.157 586.168 622.955 585.678 623.193 584.74H623.277C623.389 585.496 623.865 586 624.635 586H625.629V584.572H624.901V581.128C624.901 579.462 623.85 578.524 621.876 578.524C620.406 578.524 619.552 579.084 619.02 579.924L620.084 580.876C620.434 580.372 620.91 579.952 621.75 579.952C622.703 579.952 623.108 580.428 623.108 581.24V581.772H621.863C619.874 581.772 618.74 582.514 618.74 584.012C618.74 585.314 619.58 586.168 621.064 586.168ZM621.666 584.866C620.966 584.866 620.56 584.572 620.56 583.984V583.746C620.56 583.172 621.022 582.85 621.961 582.85H623.108V583.816C623.108 584.502 622.464 584.866 621.666 584.866ZM629.031 586V581.52C629.031 580.722 629.661 580.386 630.865 580.386H631.425V578.692H631.033C629.871 578.692 629.283 579.434 629.101 580.204H629.031V578.692H627.239V586H629.031ZM637.363 586H639.155V575.64H637.363V579.896H637.293C637.041 579.056 636.243 578.524 635.277 578.524C633.443 578.524 632.421 579.896 632.421 582.332C632.421 584.782 633.443 586.168 635.277 586.168C636.243 586.168 637.027 585.608 637.293 584.782H637.363V586ZM635.851 584.684C634.927 584.684 634.297 584.012 634.297 582.976V581.716C634.297 580.68 634.927 579.994 635.851 579.994C636.705 579.994 637.363 580.456 637.363 581.17V583.494C637.363 584.25 636.705 584.684 635.851 584.684ZM642.683 586H644.587L645.511 582.78L646.043 580.792H646.085L646.631 582.78L647.569 586H649.501L651.503 578.692H649.837L649.109 581.702L648.535 584.208H648.479L647.793 581.702L646.911 578.692H645.287L644.433 581.702L643.761 584.208H643.705L643.131 581.702L642.389 578.692H640.667L642.683 586ZM654.64 586.168C655.732 586.168 656.53 585.678 656.768 584.74H656.852C656.964 585.496 657.44 586 658.21 586H659.204V584.572H658.476V581.128C658.476 579.462 657.426 578.524 655.452 578.524C653.982 578.524 653.128 579.084 652.596 579.924L653.66 580.876C654.01 580.372 654.486 579.952 655.326 579.952C656.278 579.952 656.684 580.428 656.684 581.24V581.772H655.438C653.45 581.772 652.316 582.514 652.316 584.012C652.316 585.314 653.156 586.168 654.64 586.168ZM655.242 584.866C654.542 584.866 654.136 584.572 654.136 583.984V583.746C654.136 583.172 654.598 582.85 655.536 582.85H656.684V583.816C656.684 584.502 656.04 584.866 655.242 584.866ZM662.606 586V581.52C662.606 580.722 663.236 580.386 664.44 580.386H665V578.692H664.608C663.446 578.692 662.858 579.434 662.676 580.204H662.606V578.692H660.814V586H662.606ZM669.356 586.168C670.714 586.168 671.778 585.65 672.38 584.824L671.414 583.746C670.966 584.32 670.434 584.74 669.552 584.74C668.376 584.74 667.774 584.026 667.774 582.976V582.794H672.632V582.206C672.632 580.204 671.582 578.524 669.3 578.524C667.158 578.524 665.912 580.022 665.912 582.332C665.912 584.67 667.2 586.168 669.356 586.168ZM669.328 579.868C670.252 579.868 670.77 580.554 670.77 581.562V581.688H667.774V581.576C667.774 580.568 668.39 579.868 669.328 579.868ZM677.837 588.8H679.629V584.782H679.685C679.965 585.608 680.735 586.168 681.701 586.168C683.549 586.168 684.571 584.782 684.571 582.332C684.571 579.896 683.549 578.524 681.701 578.524C680.735 578.524 679.951 579.056 679.685 579.896H679.629V578.692H677.837V588.8ZM681.127 584.684C680.273 584.684 679.629 584.25 679.629 583.494V581.17C679.629 580.456 680.273 579.994 681.127 579.994C682.051 579.994 682.695 580.68 682.695 581.716V582.976C682.695 584.012 682.051 584.684 681.127 584.684ZM688.184 586V581.52C688.184 580.722 688.814 580.386 690.018 580.386H690.578V578.692H690.186C689.024 578.692 688.436 579.434 688.254 580.204H688.184V578.692H686.392V586H688.184ZM694.878 586.168C696.978 586.168 698.28 584.684 698.28 582.332C698.28 579.994 696.978 578.524 694.878 578.524C692.792 578.524 691.49 579.994 691.49 582.332C691.49 584.684 692.792 586.168 694.878 586.168ZM694.878 584.726C693.954 584.726 693.366 584.124 693.366 583.018V581.66C693.366 580.568 693.954 579.966 694.878 579.966C695.816 579.966 696.404 580.568 696.404 581.66V583.018C696.404 584.124 695.816 584.726 694.878 584.726ZM703.615 586L706.065 578.692H704.357L703.363 581.842L702.649 584.446H702.551L701.837 581.842L700.815 578.692H699.051L701.487 586H703.615ZM708.317 577.628C709.045 577.628 709.367 577.25 709.367 576.732V576.452C709.367 575.934 709.045 575.556 708.317 575.556C707.575 575.556 707.267 575.934 707.267 576.452V576.732C707.267 577.25 707.575 577.628 708.317 577.628ZM707.421 586H709.213V578.692H707.421V586ZM715.986 586H717.778V575.64H715.986V579.896H715.916C715.664 579.056 714.866 578.524 713.9 578.524C712.066 578.524 711.044 579.896 711.044 582.332C711.044 584.782 712.066 586.168 713.9 586.168C714.866 586.168 715.65 585.608 715.916 584.782H715.986V586ZM714.474 584.684C713.55 584.684 712.92 584.012 712.92 582.976V581.716C712.92 580.68 713.55 579.994 714.474 579.994C715.328 579.994 715.986 580.456 715.986 581.17V583.494C715.986 584.25 715.328 584.684 714.474 584.684ZM722.958 586.168C724.316 586.168 725.38 585.65 725.982 584.824L725.016 583.746C724.568 584.32 724.036 584.74 723.154 584.74C721.978 584.74 721.376 584.026 721.376 582.976V582.794H726.234V582.206C726.234 580.204 725.184 578.524 722.902 578.524C720.76 578.524 719.514 580.022 719.514 582.332C719.514 584.67 720.802 586.168 722.958 586.168ZM722.93 579.868C723.854 579.868 724.372 580.554 724.372 581.562V581.688H721.376V581.576C721.376 580.568 721.992 579.868 722.93 579.868ZM729.763 586V581.52C729.763 580.722 730.393 580.386 731.597 580.386H732.157V578.692H731.765C730.603 578.692 730.015 579.434 729.833 580.204H729.763V578.692H727.971V586H729.763ZM736.021 586.168C737.841 586.168 739.031 585.188 739.031 583.774C739.031 582.556 738.261 581.842 736.665 581.618L735.923 581.52C735.237 581.408 734.971 581.184 734.971 580.694C734.971 580.246 735.307 579.938 736.077 579.938C736.791 579.938 737.407 580.274 737.827 580.722L738.877 579.672C738.177 578.944 737.449 578.524 736.021 578.524C734.355 578.524 733.249 579.42 733.249 580.834C733.249 582.164 734.117 582.85 735.685 583.046L736.413 583.144C737.057 583.228 737.309 583.494 737.309 583.914C737.309 584.432 736.945 584.754 736.091 584.754C735.265 584.754 734.621 584.376 734.089 583.76L732.997 584.824C733.725 585.664 734.635 586.168 736.021 586.168Z" fill="black"/>
<path d="M36.186 586.168C38.524 586.168 39.854 584.908 39.854 583.06C39.854 581.45 38.93 580.568 36.956 580.218L36.046 580.05C35.108 579.882 34.688 579.574 34.688 578.832C34.688 578.104 35.234 577.684 36.284 577.684C37.32 577.684 37.992 578.09 38.468 578.692L39.728 577.502C38.944 576.564 37.852 576.06 36.382 576.06C34.198 576.06 32.84 577.194 32.84 578.944C32.84 580.54 33.792 581.478 35.766 581.786L36.69 581.926C37.712 582.108 38.02 582.514 38.02 583.172C38.02 583.998 37.432 584.544 36.298 584.544C35.29 584.544 34.464 584.124 33.792 583.34L32.546 584.544C33.372 585.51 34.52 586.168 36.186 586.168ZM42.6506 577.628C43.3786 577.628 43.7006 577.25 43.7006 576.732V576.452C43.7006 575.934 43.3786 575.556 42.6506 575.556C41.9086 575.556 41.6006 575.934 41.6006 576.452V576.732C41.6006 577.25 41.9086 577.628 42.6506 577.628ZM41.7546 586H43.5466V578.692H41.7546V586ZM47.5757 586V581.17C47.5757 580.386 48.2477 579.994 48.9337 579.994C49.7317 579.994 50.1097 580.512 50.1097 581.562V586H51.9017V581.17C51.9017 580.386 52.5597 579.994 53.2597 579.994C54.0577 579.994 54.4357 580.512 54.4357 581.562V586H56.2277V581.38C56.2277 579.56 55.4157 578.524 53.9877 578.524C52.8257 578.524 52.0137 579.182 51.7477 579.994H51.7197C51.3697 579.014 50.5997 578.524 49.6057 578.524C48.5137 578.524 47.9257 579.14 47.6457 579.91H47.5757V578.692H45.7837V586H47.5757ZM62.7395 586H64.5315V578.692H62.7395V583.522C62.7395 584.306 62.0255 584.684 61.3115 584.684C60.4575 584.684 60.0795 584.138 60.0795 583.13V578.692H58.2875V583.312C58.2875 585.132 59.1275 586.168 60.6255 586.168C61.8295 586.168 62.4175 585.51 62.6695 584.782H62.7395V586ZM69.5199 586V584.572H68.5539V575.64H66.7619V584.236C66.7619 585.356 67.3359 586 68.5539 586H69.5199ZM72.8432 586.168C73.9352 586.168 74.7332 585.678 74.9712 584.74H75.0552C75.1672 585.496 75.6432 586 76.4132 586H77.4072V584.572H76.6792V581.128C76.6792 579.462 75.6292 578.524 73.6552 578.524C72.1852 578.524 71.3312 579.084 70.7992 579.924L71.8632 580.876C72.2132 580.372 72.6892 579.952 73.5292 579.952C74.4812 579.952 74.8872 580.428 74.8872 581.24V581.772H73.6412C71.6532 581.772 70.5192 582.514 70.5192 584.012C70.5192 585.314 71.3592 586.168 72.8432 586.168ZM73.4452 584.866C72.7452 584.866 72.3392 584.572 72.3392 583.984V583.746C72.3392 583.172 72.8012 582.85 73.7392 582.85H74.8872V583.816C74.8872 584.502 74.2432 584.866 73.4452 584.866ZM81.2448 586H82.5328V584.572H81.1468V580.12H82.6448V578.692H81.1468V576.69H79.5368V577.936C79.5368 578.44 79.3688 578.692 78.8368 578.692H78.2768V580.12H79.3548V584.138C79.3548 585.328 80.0128 586 81.2448 586ZM87.2024 586.168C89.3024 586.168 90.6044 584.684 90.6044 582.332C90.6044 579.994 89.3024 578.524 87.2024 578.524C85.1164 578.524 83.8144 579.994 83.8144 582.332C83.8144 584.684 85.1164 586.168 87.2024 586.168ZM87.2024 584.726C86.2784 584.726 85.6904 584.124 85.6904 583.018V581.66C85.6904 580.568 86.2784 579.966 87.2024 579.966C88.1404 579.966 88.7284 580.568 88.7284 581.66V583.018C88.7284 584.124 88.1404 584.726 87.2024 584.726ZM94.1451 586V581.52C94.1451 580.722 94.7751 580.386 95.9791 580.386H96.5391V578.692H96.1471C94.9851 578.692 94.3971 579.434 94.2151 580.204H94.1451V578.692H92.3531V586H94.1451Z" fill="black"/>
<path d="M1050.29 86.6698H1045.99C1042.6 86.6698 1041.03 84.8238 1041.03 81.8703V79.5814C1034.25 78.7212 1029.95 73.368 1029.95 64.1346C1029.95 53.9967 1035.12 48.5586 1043.03 48.5586C1050.94 48.5586 1056.11 53.9967 1056.11 64.1346C1056.11 73.1095 1052.07 78.4184 1045.64 79.4965V82.6013H1050.19L1050.29 86.6698ZM1050.85 66.5195V61.7829C1050.85 56.3041 1047.73 52.9224 1043.04 52.9224C1038.36 52.9224 1035.23 56.2894 1035.23 61.7829V66.5195C1035.23 71.9983 1038.36 75.38 1043.04 75.38C1047.73 75.38 1050.85 71.9983 1050.85 66.5195Z" fill="#010101"/>
<path d="M1059.61 51.1718V50.4334C1059.61 49.0083 1060.48 47.9746 1062.43 47.9746C1064.39 47.9746 1065.21 49.0083 1065.21 50.4334V51.1718C1065.21 52.5931 1064.39 53.6306 1062.43 53.6306C1060.48 53.6306 1059.61 52.5931 1059.61 51.1718Z" fill="#010101"/>
<path d="M1064.78 56.7676H1060.04V79.2031H1064.78V56.7676Z" fill="#010101"/>
<path d="M1068.73 75.4938L1071.76 72.7323C1073.41 74.7185 1075.46 75.9257 1078.15 75.9257C1080.85 75.9257 1082.28 74.8182 1082.28 72.9058C1082.28 71.4807 1081.41 70.4027 1079.06 70.0999L1076.98 69.8415C1072.37 69.2804 1069.54 67.2941 1069.54 63.1518C1069.54 58.7954 1072.97 56.248 1077.93 56.248C1082.02 56.248 1084.32 57.5882 1086.36 59.8292L1083.45 62.5907C1082.77 61.792 1081.93 61.1503 1080.97 60.7108C1080.02 60.2714 1078.98 60.0448 1077.93 60.047C1075.32 60.047 1074.1 61.1545 1074.1 62.8491C1074.1 64.5437 1075.19 65.3522 1077.58 65.7435L1079.67 66.002C1084.62 66.7403 1086.84 68.8927 1086.84 72.5144C1086.84 76.8302 1083.32 79.721 1077.89 79.721C1073.64 79.721 1070.86 78.1261 1068.73 75.4938Z" fill="#010101"/>
<path d="M1090.07 47.2734H1094.82V66.8625H1095.04L1098.17 62.8494L1103.6 56.7689H1109.12L1101.2 65.4411L1110.07 79.2044H1104.41L1097.93 68.498L1094.82 71.8687V79.2044H1090.07V47.2734Z" fill="#010101"/>
<path d="M1113.36 51.1718V50.4334C1113.36 49.0083 1114.23 47.9746 1116.18 47.9746C1118.14 47.9746 1118.96 49.0083 1118.96 50.4334V51.1718C1118.96 52.5931 1118.14 53.6306 1116.18 53.6306C1114.23 53.6306 1113.36 52.5931 1113.36 51.1718Z" fill="#010101"/>
<path d="M1118.53 56.7676H1113.79V79.2031H1118.53V56.7676Z" fill="#010101"/>
<path d="M1131 79.2046C1127.74 79.2046 1126 77.3919 1126 74.3277V60.6087H1122.48V56.7691H1124.4C1125.96 56.7691 1126.48 56.1194 1126.48 54.554V50.6406H1130.74V56.7691H1135.48V60.6087H1130.74V75.3762H1135.13V79.2157L1131 79.2046Z" fill="#010101"/>
<path d="M1016.77 78.0783C1016.72 73.2974 1005.42 70.5986 994.778 70.4805C983.49 70.4805 971.812 73.3158 971.775 78.0636V78.0931C971.82 82.863 983.129 85.5581 993.77 85.6762C1005.06 85.6762 1016.74 82.8408 1016.77 78.0931V78.0783ZM993.766 83.9336C981.865 83.8007 973.56 80.7476 973.53 78.082C973.579 75.3131 982.638 72.2267 994.778 72.2267C1006.68 72.3596 1014.98 75.4128 1015.01 78.0783C1014.98 80.8435 1005.9 83.9336 993.766 83.9336Z" fill="url(#paint0_radial_105_730)"/>
<path d="M994.32 91.8111C989.711 91.825 985.181 90.6239 981.192 88.3305C977.204 86.0371 973.9 82.7336 971.619 78.7577C969.338 74.7817 968.161 70.2758 968.209 65.7005C968.256 61.1252 969.527 56.6445 971.89 52.7163C974.254 48.7881 977.626 45.5532 981.661 43.3423C985.697 41.1314 990.251 40.0236 994.859 40.1323C999.467 40.241 1003.96 41.5621 1007.89 43.9608C1011.81 46.3595 1015.03 49.7496 1017.2 53.7848C1019.32 57.7157 1020.38 62.1255 1020.28 66.5844C1020.18 71.0434 1018.91 75.3996 1016.61 79.2288C1014.3 83.058 1011.04 86.2295 1007.13 88.4345C1003.23 90.6395 998.813 91.8028 994.32 91.8111ZM994.238 41.9044C988.934 41.9155 983.78 43.6526 979.565 46.8494C975.35 50.0462 972.308 54.5265 970.903 59.6039C969.499 64.6814 969.81 70.0759 971.789 74.9611C973.768 79.8462 977.305 83.9527 981.86 86.6513C986.415 89.3499 991.735 90.4919 997.006 89.9023C1002.28 89.3126 1007.21 87.0239 1011.04 83.3867C1014.88 79.7495 1017.41 74.9645 1018.24 69.7646C1019.07 64.5647 1018.17 59.2368 1015.66 54.597C1013.58 50.7557 1010.49 47.5466 1006.72 45.3114C1002.94 43.0762 998.632 41.8987 994.238 41.9044Z" fill="#010101"/>
<path d="M1000.98 88.3377C1000.96 86.3625 998.084 84.871 994.29 84.871C990.497 84.871 987.596 86.3477 987.596 88.3377V88.3635C987.622 90.3387 990.497 91.8302 994.29 91.8302C998.084 91.8302 1000.98 90.3534 1000.98 88.3635V88.3377ZM994.29 90.1836C991.282 90.1836 989.363 89.1056 989.34 88.3377C989.318 87.5698 991.282 86.4917 994.29 86.4917C997.299 86.4917 999.215 87.5734 999.237 88.3377C999.259 89.1019 997.284 90.1688 994.279 90.1688L994.29 90.1836Z" fill="url(#paint1_radial_105_730)"/>
<path d="M1020.3 65.9952C1020.22 60.8819 1007.16 57.9654 994.874 57.8398C981.857 57.8398 968.331 60.9041 968.257 65.9952C968.257 65.9952 968.257 65.9952 968.257 66.0173C968.331 71.1306 981.389 74.0472 993.68 74.1727C1006.7 74.1727 1020.22 71.1084 1020.3 66.0173C1020.3 66.0173 1020.3 66.0026 1020.3 65.9952ZM993.688 72.4264C979.771 72.2824 970.064 68.9265 970.016 65.9989C970.064 62.9605 980.678 59.5676 994.867 59.5676C1008.78 59.7116 1018.49 63.0675 1018.54 65.9952C1018.49 69.0336 1007.88 72.4264 993.688 72.4264Z" fill="url(#paint2_radial_105_730)"/>
<path d="M994.778 46.2324C983.486 46.2324 971.808 49.0789 971.808 53.834C971.808 58.5891 983.111 61.3211 993.751 61.4392C1005.04 61.4392 1016.72 58.5928 1016.72 53.834C1016.72 49.0752 1005.43 46.3506 994.778 46.2324ZM993.777 59.693C981.876 59.5675 973.579 56.4995 973.579 53.834C973.579 51.0762 982.653 47.9787 994.778 47.9787C1006.68 48.1116 1014.97 51.1721 1014.97 53.834C1014.98 56.614 1005.91 59.693 993.777 59.693Z" fill="url(#paint3_radial_105_730)"/>
<path d="M994.19 40.1367C992.297 40.1367 987.897 40.421 987.897 43.0496C987.897 45.6782 992.297 45.9625 994.19 45.9625C996.083 45.9625 1000.48 45.6782 1000.48 43.0496C1000.48 40.421 996.083 40.1367 994.19 40.1367ZM994.19 41.9051C996.849 41.9051 998.701 42.5106 998.701 43.0496C998.701 43.5886 996.842 44.1941 994.19 44.1941C991.538 44.1941 989.679 43.5923 989.679 43.0496C989.679 42.5069 991.531 41.9051 994.19 41.9051Z" fill="black"/>
<path d="M1005.19 81.6474C1005.08 81.6485 1004.98 81.6571 1004.87 81.6732L995.086 64.9011L986.179 49.6204C986.496 49.2267 986.669 48.7372 986.668 48.2329C986.667 47.7287 986.493 47.2398 986.174 46.8471C985.856 46.4544 985.412 46.1813 984.915 46.0731C984.419 45.9649 983.901 46.0279 983.446 46.2519C982.991 46.4758 982.626 46.8472 982.412 47.3046C982.198 47.7621 982.148 48.2782 982.27 48.7678C982.392 49.2573 982.678 49.691 983.082 49.997C983.486 50.3031 983.983 50.4633 984.491 50.4511C984.589 50.4471 984.687 50.4372 984.784 50.4215L993.692 65.7022L997.716 72.6097L1003.46 82.4559C1003.14 82.8447 1002.96 83.3308 1002.95 83.834C1002.94 84.3373 1003.11 84.8278 1003.42 85.2247C1003.73 85.6216 1004.17 85.9012 1004.67 86.0176C1005.16 86.134 1005.68 86.0801 1006.14 85.8649C1006.59 85.6497 1006.97 85.286 1007.19 84.8336C1007.41 84.3813 1007.47 83.8672 1007.36 83.3762C1007.25 82.8852 1006.97 82.4464 1006.58 82.1322C1006.18 81.8179 1005.69 81.647 1005.18 81.6474H1005.19Z" fill="url(#paint4_radial_105_730)"/>
<path d="M39.07 46H40.918V36.228H39.07V40.232H34.996V36.228H33.148V46H34.996V41.87H39.07V46ZM44.1545 37.628C44.8825 37.628 45.2045 37.25 45.2045 36.732V36.452C45.2045 35.934 44.8825 35.556 44.1545 35.556C43.4125 35.556 43.1045 35.934 43.1045 36.452V36.732C43.1045 37.25 43.4125 37.628 44.1545 37.628ZM43.2585 46H45.0505V38.692H43.2585V46ZM53.8816 46.616C53.8816 45.3 53.1116 44.53 51.3196 44.53H49.3596C48.7156 44.53 48.4076 44.348 48.4076 43.984C48.4076 43.662 48.6456 43.452 48.9256 43.326C49.2476 43.41 49.6256 43.452 50.0456 43.452C52.0336 43.452 53.0696 42.472 53.0696 41.002C53.0696 40.106 52.6916 39.392 51.9356 38.972V38.776H53.4896V37.404H52.3556C51.6836 37.404 51.3196 37.754 51.3196 38.468V38.706C50.9556 38.58 50.4936 38.524 50.0456 38.524C48.0716 38.524 47.0216 39.518 47.0216 41.002C47.0216 41.968 47.4696 42.724 48.3516 43.13V43.186C47.6516 43.34 47.0076 43.718 47.0076 44.474C47.0076 45.062 47.3436 45.538 47.9456 45.692V45.846C47.1336 45.972 46.6436 46.434 46.6436 47.246C46.6436 48.324 47.5816 48.968 50.0456 48.968C52.8456 48.968 53.8816 48.142 53.8816 46.616ZM52.2016 46.826C52.2016 47.442 51.6836 47.736 50.5216 47.736H49.6256C48.5056 47.736 48.0856 47.4 48.0856 46.84C48.0856 46.546 48.1976 46.28 48.4636 46.084H50.9556C51.8656 46.084 52.2016 46.364 52.2016 46.826ZM50.0456 42.234C49.1916 42.234 48.7296 41.842 48.7296 41.114V40.876C48.7296 40.134 49.1916 39.756 50.0456 39.756C50.8996 39.756 51.3616 40.134 51.3616 40.876V41.114C51.3616 41.842 50.8996 42.234 50.0456 42.234ZM55.0765 46H56.8685V41.17C56.8685 40.386 57.5825 39.994 58.3245 39.994C59.1785 39.994 59.5285 40.526 59.5285 41.562V46L61.3205 46V41.38C61.3205 39.56 60.4805 38.524 58.9825 38.524C57.8485 38.524 57.2325 39.126 56.9385 39.91H56.8685V35.64L55.0765 35.64V46ZM69.6936 46V44.572H68.7276V35.64H66.9356V44.236C66.9356 45.356 67.5096 46 68.7276 46H69.6936ZM74.1648 46.168C75.5228 46.168 76.5868 45.65 77.1888 44.824L76.2228 43.746C75.7748 44.32 75.2428 44.74 74.3608 44.74C73.1848 44.74 72.5828 44.026 72.5828 42.976V42.794H77.4408V42.206C77.4408 40.204 76.3908 38.524 74.1088 38.524C71.9668 38.524 70.7208 40.022 70.7208 42.332C70.7208 44.67 72.0088 46.168 74.1648 46.168ZM74.1368 39.868C75.0608 39.868 75.5788 40.554 75.5788 41.562V41.688H72.5828V41.576C72.5828 40.568 73.1988 39.868 74.1368 39.868ZM82.7504 46L85.2004 38.692H83.4924L82.4984 41.842L81.7844 44.446H81.6864L80.9724 41.842L79.9504 38.692H78.1864L80.6224 46H82.7504ZM89.4009 46.168C90.7589 46.168 91.8229 45.65 92.4249 44.824L91.4589 43.746C91.0109 44.32 90.4789 44.74 89.5969 44.74C88.4209 44.74 87.8189 44.026 87.8189 42.976V42.794H92.6769V42.206C92.6769 40.204 91.6269 38.524 89.3449 38.524C87.2029 38.524 85.9569 40.022 85.9569 42.332C85.9569 44.67 87.2449 46.168 89.4009 46.168ZM89.3729 39.868C90.2969 39.868 90.8149 40.554 90.8149 41.562V41.688H87.8189V41.576C87.8189 40.568 88.4349 39.868 89.3729 39.868ZM97.1715 46V44.572H96.2055V35.64H94.4135V44.236C94.4135 45.356 94.9875 46 96.2055 46H97.1715ZM103.963 46.168C105.055 46.168 105.853 45.678 106.091 44.74H106.175C106.287 45.496 106.763 46 107.533 46H108.527V44.572H107.799V41.128C107.799 39.462 106.749 38.524 104.775 38.524C103.305 38.524 102.451 39.084 101.919 39.924L102.983 40.876C103.333 40.372 103.809 39.952 104.649 39.952C105.601 39.952 106.007 40.428 106.007 41.24V41.772H104.761C102.773 41.772 101.639 42.514 101.639 44.012C101.639 45.314 102.479 46.168 103.963 46.168ZM104.565 44.866C103.865 44.866 103.459 44.572 103.459 43.984V43.746C103.459 43.172 103.921 42.85 104.859 42.85H106.007V43.816C106.007 44.502 105.363 44.866 104.565 44.866ZM110.138 48.8H111.93V44.782H111.986C112.266 45.608 113.036 46.168 114.002 46.168C115.85 46.168 116.872 44.782 116.872 42.332C116.872 39.896 115.85 38.524 114.002 38.524C113.036 38.524 112.252 39.056 111.986 39.896H111.93V38.692H110.138V48.8ZM113.428 44.684C112.574 44.684 111.93 44.25 111.93 43.494V41.17C111.93 40.456 112.574 39.994 113.428 39.994C114.352 39.994 114.996 40.68 114.996 41.716V42.976C114.996 44.012 114.352 44.684 113.428 44.684ZM118.692 48.8H120.484V44.782H120.54C120.82 45.608 121.59 46.168 122.556 46.168C124.404 46.168 125.426 44.782 125.426 42.332C125.426 39.896 124.404 38.524 122.556 38.524C121.59 38.524 120.806 39.056 120.54 39.896H120.484V38.692H118.692V48.8ZM121.982 44.684C121.128 44.684 120.484 44.25 120.484 43.494V41.17C120.484 40.456 121.128 39.994 121.982 39.994C122.906 39.994 123.55 40.68 123.55 41.716V42.976C123.55 44.012 122.906 44.684 121.982 44.684ZM130.005 46V44.572H129.039V35.64H127.247V44.236C127.247 45.356 127.821 46 129.039 46H130.005ZM132.418 37.628C133.146 37.628 133.468 37.25 133.468 36.732V36.452C133.468 35.934 133.146 35.556 132.418 35.556C131.676 35.556 131.368 35.934 131.368 36.452V36.732C131.368 37.25 131.676 37.628 132.418 37.628ZM131.522 46H133.314V38.692H131.522V46ZM138.435 46.168C139.849 46.168 140.871 45.524 141.347 44.236L139.975 43.578C139.709 44.236 139.289 44.726 138.435 44.726C137.441 44.726 136.937 44.04 136.937 43.018V41.688C136.937 40.666 137.441 39.966 138.435 39.966C139.205 39.966 139.667 40.414 139.835 41.03L141.305 40.372C140.871 39.224 139.905 38.524 138.435 38.524C136.279 38.524 135.061 39.994 135.061 42.332C135.061 44.684 136.279 46.168 138.435 46.168ZM144.695 46.168C145.787 46.168 146.585 45.678 146.823 44.74H146.907C147.019 45.496 147.495 46 148.265 46H149.259V44.572H148.531V41.128C148.531 39.462 147.481 38.524 145.507 38.524C144.037 38.524 143.183 39.084 142.651 39.924L143.715 40.876C144.065 40.372 144.541 39.952 145.381 39.952C146.333 39.952 146.739 40.428 146.739 41.24V41.772H145.493C143.505 41.772 142.371 42.514 142.371 44.012C142.371 45.314 143.211 46.168 144.695 46.168ZM145.297 44.866C144.597 44.866 144.191 44.572 144.191 43.984V43.746C144.191 43.172 144.653 42.85 145.591 42.85H146.739V43.816C146.739 44.502 146.095 44.866 145.297 44.866ZM153.096 46H154.384V44.572H152.998V40.12H154.496V38.692H152.998V36.69H151.388V37.936C151.388 38.44 151.22 38.692 150.688 38.692H150.128V40.12H151.206V44.138C151.206 45.328 151.864 46 153.096 46ZM157.107 37.628C157.835 37.628 158.157 37.25 158.157 36.732V36.452C158.157 35.934 157.835 35.556 157.107 35.556C156.365 35.556 156.057 35.934 156.057 36.452V36.732C156.057 37.25 156.365 37.628 157.107 37.628ZM156.211 46H158.003V38.692H156.211V46ZM163.138 46.168C165.238 46.168 166.54 44.684 166.54 42.332C166.54 39.994 165.238 38.524 163.138 38.524C161.052 38.524 159.75 39.994 159.75 42.332C159.75 44.684 161.052 46.168 163.138 46.168ZM163.138 44.726C162.214 44.726 161.626 44.124 161.626 43.018V41.66C161.626 40.568 162.214 39.966 163.138 39.966C164.076 39.966 164.664 40.568 164.664 41.66V43.018C164.664 44.124 164.076 44.726 163.138 44.726ZM170.081 46V41.17C170.081 40.386 170.795 39.994 171.537 39.994C172.391 39.994 172.741 40.526 172.741 41.562V46H174.533V41.38C174.533 39.56 173.693 38.524 172.195 38.524C171.061 38.524 170.445 39.126 170.151 39.91H170.081V38.692H168.289V46H170.081ZM179.073 46.168C180.893 46.168 182.083 45.188 182.083 43.774C182.083 42.556 181.313 41.842 179.717 41.618L178.975 41.52C178.289 41.408 178.023 41.184 178.023 40.694C178.023 40.246 178.359 39.938 179.129 39.938C179.843 39.938 180.459 40.274 180.879 40.722L181.929 39.672C181.229 38.944 180.501 38.524 179.073 38.524C177.407 38.524 176.301 39.42 176.301 40.834C176.301 42.164 177.169 42.85 178.737 43.046L179.465 43.144C180.109 43.228 180.361 43.494 180.361 43.914C180.361 44.432 179.997 44.754 179.143 44.754C178.317 44.754 177.673 44.376 177.141 43.76L176.049 44.824C176.777 45.664 177.687 46.168 179.073 46.168Z" fill="black"/>
<path d="M36.942 384.168C38.692 384.168 39.854 383.314 40.554 381.858L39.056 380.976C38.734 381.858 38.048 382.53 36.942 382.53C35.57 382.53 34.688 381.578 34.688 379.898V378.358C34.688 376.692 35.57 375.698 36.942 375.698C38.034 375.698 38.65 376.286 38.93 377.154L40.512 376.314C39.826 374.802 38.692 374.06 36.942 374.06C34.366 374.06 32.728 375.894 32.728 379.184C32.728 382.474 34.366 384.168 36.942 384.168ZM45.0764 384.168C47.1764 384.168 48.4784 382.684 48.4784 380.332C48.4784 377.994 47.1764 376.524 45.0764 376.524C42.9904 376.524 41.6884 377.994 41.6884 380.332C41.6884 382.684 42.9904 384.168 45.0764 384.168ZM45.0764 382.726C44.1524 382.726 43.5644 382.124 43.5644 381.018V379.66C43.5644 378.568 44.1524 377.966 45.0764 377.966C46.0144 377.966 46.6024 378.568 46.6024 379.66V381.018C46.6024 382.124 46.0144 382.726 45.0764 382.726ZM52.0191 384V379.52C52.0191 378.722 52.6491 378.386 53.8531 378.386H54.4131V376.692H54.0211C52.8591 376.692 52.2711 377.434 52.0891 378.204H52.0191V376.692H50.2271V384H52.0191ZM58.7688 384.168C60.1268 384.168 61.1908 383.65 61.7928 382.824L60.8268 381.746C60.3788 382.32 59.8468 382.74 58.9648 382.74C57.7888 382.74 57.1868 382.026 57.1868 380.976V380.794H62.0448V380.206C62.0448 378.204 60.9948 376.524 58.7128 376.524C56.5708 376.524 55.3248 378.022 55.3248 380.332C55.3248 382.67 56.6128 384.168 58.7688 384.168ZM58.7408 377.868C59.6648 377.868 60.1828 378.554 60.1828 379.562V379.688H57.1868V379.576C57.1868 378.568 57.8028 377.868 58.7408 377.868ZM71.1561 384.168C72.9061 384.168 74.0681 383.314 74.7681 381.858L73.2701 380.976C72.9481 381.858 72.2621 382.53 71.1561 382.53C69.7841 382.53 68.9021 381.578 68.9021 379.898V378.358C68.9021 376.692 69.7841 375.698 71.1561 375.698C72.2481 375.698 72.8641 376.286 73.1441 377.154L74.7261 376.314C74.0401 374.802 72.9061 374.06 71.1561 374.06C68.5801 374.06 66.9421 375.894 66.9421 379.184C66.9421 382.474 68.5801 384.168 71.1561 384.168ZM78.1985 384.168C79.2905 384.168 80.0885 383.678 80.3265 382.74H80.4105C80.5225 383.496 80.9985 384 81.7685 384H82.7625V382.572H82.0345V379.128C82.0345 377.462 80.9845 376.524 79.0105 376.524C77.5405 376.524 76.6865 377.084 76.1545 377.924L77.2185 378.876C77.5685 378.372 78.0445 377.952 78.8845 377.952C79.8365 377.952 80.2425 378.428 80.2425 379.24V379.772H78.9965C77.0085 379.772 75.8745 380.514 75.8745 382.012C75.8745 383.314 76.7145 384.168 78.1985 384.168ZM78.8005 382.866C78.1005 382.866 77.6945 382.572 77.6945 381.984V381.746C77.6945 381.172 78.1565 380.85 79.0945 380.85H80.2425V381.816C80.2425 382.502 79.5985 382.866 78.8005 382.866ZM84.3728 386.8H86.1648V382.782H86.2208C86.5008 383.608 87.2708 384.168 88.2368 384.168C90.0848 384.168 91.1068 382.782 91.1068 380.332C91.1068 377.896 90.0848 376.524 88.2368 376.524C87.2708 376.524 86.4868 377.056 86.2208 377.896H86.1648V376.692H84.3728V386.8ZM87.6628 382.684C86.8088 382.684 86.1648 382.25 86.1648 381.494V379.17C86.1648 378.456 86.8088 377.994 87.6628 377.994C88.5868 377.994 89.2308 378.68 89.2308 379.716V380.976C89.2308 382.012 88.5868 382.684 87.6628 382.684ZM94.7333 384.168C95.8253 384.168 96.6233 383.678 96.8613 382.74H96.9453C97.0573 383.496 97.5333 384 98.3033 384H99.2973V382.572H98.5693V379.128C98.5693 377.462 97.5193 376.524 95.5453 376.524C94.0753 376.524 93.2213 377.084 92.6893 377.924L93.7533 378.876C94.1033 378.372 94.5793 377.952 95.4193 377.952C96.3713 377.952 96.7773 378.428 96.7773 379.24V379.772H95.5313C93.5433 379.772 92.4093 380.514 92.4093 382.012C92.4093 383.314 93.2493 384.168 94.7333 384.168ZM95.3353 382.866C94.6353 382.866 94.2293 382.572 94.2293 381.984V381.746C94.2293 381.172 94.6913 380.85 95.6293 380.85H96.7773V381.816C96.7773 382.502 96.1333 382.866 95.3353 382.866ZM100.908 384H102.7V382.782H102.756C103.036 383.608 103.806 384.168 104.772 384.168C106.62 384.168 107.642 382.782 107.642 380.332C107.642 377.896 106.62 376.524 104.772 376.524C103.806 376.524 103.022 377.056 102.756 377.896H102.7V373.64H100.908V384ZM104.198 382.684C103.344 382.684 102.7 382.25 102.7 381.494V379.17C102.7 378.456 103.344 377.994 104.198 377.994C105.122 377.994 105.766 378.68 105.766 379.716V380.976C105.766 382.012 105.122 382.684 104.198 382.684ZM110.358 375.628C111.086 375.628 111.408 375.25 111.408 374.732V374.452C111.408 373.934 111.086 373.556 110.358 373.556C109.616 373.556 109.308 373.934 109.308 374.452V374.732C109.308 375.25 109.616 375.628 110.358 375.628ZM109.462 384H111.254V376.692H109.462V384ZM116.249 384V382.572H115.283V373.64H113.491V382.236C113.491 383.356 114.065 384 115.283 384H116.249ZM118.663 375.628C119.391 375.628 119.713 375.25 119.713 374.732V374.452C119.713 373.934 119.391 373.556 118.663 373.556C117.921 373.556 117.613 373.934 117.613 374.452V374.732C117.613 375.25 117.921 375.628 118.663 375.628ZM117.767 384H119.559V376.692H117.767V384ZM124.078 384H125.366V382.572H123.98V378.12H125.478V376.692H123.98V374.69H122.37V375.936C122.37 376.44 122.202 376.692 121.67 376.692H121.11V378.12H122.188V382.138C122.188 383.328 122.846 384 124.078 384ZM128.088 375.628C128.816 375.628 129.138 375.25 129.138 374.732V374.452C129.138 373.934 128.816 373.556 128.088 373.556C127.346 373.556 127.038 373.934 127.038 374.452V374.732C127.038 375.25 127.346 375.628 128.088 375.628ZM127.192 384H128.984V376.692H127.192V384ZM134.175 384.168C135.533 384.168 136.597 383.65 137.199 382.824L136.233 381.746C135.785 382.32 135.253 382.74 134.371 382.74C133.195 382.74 132.593 382.026 132.593 380.976V380.794H137.451V380.206C137.451 378.204 136.401 376.524 134.119 376.524C131.977 376.524 130.731 378.022 130.731 380.332C130.731 382.67 132.019 384.168 134.175 384.168ZM134.147 377.868C135.071 377.868 135.589 378.554 135.589 379.562V379.688H132.593V379.576C132.593 378.568 133.209 377.868 134.147 377.868ZM141.582 384.168C143.402 384.168 144.592 383.188 144.592 381.774C144.592 380.556 143.822 379.842 142.226 379.618L141.484 379.52C140.798 379.408 140.532 379.184 140.532 378.694C140.532 378.246 140.868 377.938 141.638 377.938C142.352 377.938 142.968 378.274 143.388 378.722L144.438 377.672C143.738 376.944 143.01 376.524 141.582 376.524C139.916 376.524 138.81 377.42 138.81 378.834C138.81 380.164 139.678 380.85 141.246 381.046L141.974 381.144C142.618 381.228 142.87 381.494 142.87 381.914C142.87 382.432 142.506 382.754 141.652 382.754C140.826 382.754 140.182 382.376 139.65 381.76L138.558 382.824C139.286 383.664 140.196 384.168 141.582 384.168Z" fill="black"/>
<path d="M614.846 46V44.362H610.996V36.228H609.148V46H614.846ZM619.258 46.168C621.358 46.168 622.66 44.684 622.66 42.332C622.66 39.994 621.358 38.524 619.258 38.524C617.172 38.524 615.87 39.994 615.87 42.332C615.87 44.684 617.172 46.168 619.258 46.168ZM619.258 44.726C618.334 44.726 617.746 44.124 617.746 43.018V41.66C617.746 40.568 618.334 39.966 619.258 39.966C620.196 39.966 620.784 40.568 620.784 41.66V43.018C620.784 44.124 620.196 44.726 619.258 44.726ZM625.588 46H627.492L628.416 42.78L628.948 40.792H628.99L629.536 42.78L630.474 46H632.406L634.408 38.692L632.742 38.692L632.014 41.702L631.44 44.208H631.384L630.698 41.702L629.816 38.692H628.192L627.338 41.702L626.666 44.208H626.61L626.036 41.702L625.294 38.692H623.572L625.588 46ZM642.143 46V44.572H641.177V35.64H639.385V44.236C639.385 45.356 639.959 46 641.177 46H642.143ZM646.614 46.168C647.972 46.168 649.036 45.65 649.638 44.824L648.672 43.746C648.224 44.32 647.692 44.74 646.81 44.74C645.634 44.74 645.032 44.026 645.032 42.976V42.794H649.89V42.206C649.89 40.204 648.84 38.524 646.558 38.524C644.416 38.524 643.17 40.022 643.17 42.332C643.17 44.67 644.458 46.168 646.614 46.168ZM646.586 39.868C647.51 39.868 648.028 40.554 648.028 41.562V41.688H645.032V41.576C645.032 40.568 645.648 39.868 646.586 39.868ZM655.2 46L657.65 38.692H655.942L654.948 41.842L654.234 44.446H654.136L653.422 41.842L652.4 38.692H650.636L653.072 46H655.2ZM661.85 46.168C663.208 46.168 664.272 45.65 664.874 44.824L663.908 43.746C663.46 44.32 662.928 44.74 662.046 44.74C660.87 44.74 660.268 44.026 660.268 42.976V42.794H665.126V42.206C665.126 40.204 664.076 38.524 661.794 38.524C659.652 38.524 658.406 40.022 658.406 42.332C658.406 44.67 659.694 46.168 661.85 46.168ZM661.822 39.868C662.746 39.868 663.264 40.554 663.264 41.562V41.688H660.268V41.576C660.268 40.568 660.884 39.868 661.822 39.868ZM669.621 46V44.572L668.655 44.572V35.64H666.863V44.236C666.863 45.356 667.437 46 668.655 46L669.621 46ZM676.413 46.168C677.505 46.168 678.303 45.678 678.541 44.74H678.625C678.737 45.496 679.213 46 679.983 46H680.977V44.572H680.249V41.128C680.249 39.462 679.199 38.524 677.225 38.524C675.755 38.524 674.901 39.084 674.369 39.924L675.433 40.876C675.783 40.372 676.259 39.952 677.099 39.952C678.051 39.952 678.457 40.428 678.457 41.24V41.772H677.211C675.223 41.772 674.089 42.514 674.089 44.012C674.089 45.314 674.929 46.168 676.413 46.168ZM677.015 44.866C676.315 44.866 675.909 44.572 675.909 43.984V43.746C675.909 43.172 676.371 42.85 677.309 42.85H678.457V43.816C678.457 44.502 677.813 44.866 677.015 44.866ZM682.587 48.8H684.379V44.782H684.435C684.715 45.608 685.485 46.168 686.451 46.168C688.299 46.168 689.321 44.782 689.321 42.332C689.321 39.896 688.299 38.524 686.451 38.524C685.485 38.524 684.701 39.056 684.435 39.896H684.379V38.692H682.587V48.8ZM685.877 44.684C685.023 44.684 684.379 44.25 684.379 43.494V41.17C684.379 40.456 685.023 39.994 685.877 39.994C686.801 39.994 687.445 40.68 687.445 41.716V42.976C687.445 44.012 686.801 44.684 685.877 44.684ZM691.142 48.8H692.934V44.782H692.99C693.27 45.608 694.04 46.168 695.006 46.168C696.854 46.168 697.876 44.782 697.876 42.332C697.876 39.896 696.854 38.524 695.006 38.524C694.04 38.524 693.256 39.056 692.99 39.896H692.934V38.692H691.142V48.8ZM694.432 44.684C693.578 44.684 692.934 44.25 692.934 43.494V41.17C692.934 40.456 693.578 39.994 694.432 39.994C695.356 39.994 696 40.68 696 41.716V42.976C696 44.012 695.356 44.684 694.432 44.684ZM702.454 46V44.572H701.488V35.64H699.696V44.236C699.696 45.356 700.27 46 701.488 46H702.454ZM704.867 37.628C705.595 37.628 705.917 37.25 705.917 36.732V36.452C705.917 35.934 705.595 35.556 704.867 35.556C704.125 35.556 703.817 35.934 703.817 36.452V36.732C703.817 37.25 704.125 37.628 704.867 37.628ZM703.971 46H705.763V38.692H703.971V46ZM710.884 46.168C712.298 46.168 713.32 45.524 713.796 44.236L712.424 43.578C712.158 44.236 711.738 44.726 710.884 44.726C709.89 44.726 709.386 44.04 709.386 43.018V41.688C709.386 40.666 709.89 39.966 710.884 39.966C711.654 39.966 712.116 40.414 712.284 41.03L713.754 40.372C713.32 39.224 712.354 38.524 710.884 38.524C708.728 38.524 707.51 39.994 707.51 42.332C707.51 44.684 708.728 46.168 710.884 46.168ZM717.144 46.168C718.236 46.168 719.034 45.678 719.272 44.74H719.356C719.468 45.496 719.944 46 720.714 46H721.708V44.572H720.98V41.128C720.98 39.462 719.93 38.524 717.956 38.524C716.486 38.524 715.632 39.084 715.1 39.924L716.164 40.876C716.514 40.372 716.99 39.952 717.83 39.952C718.782 39.952 719.188 40.428 719.188 41.24V41.772H717.942C715.954 41.772 714.82 42.514 714.82 44.012C714.82 45.314 715.66 46.168 717.144 46.168ZM717.746 44.866C717.046 44.866 716.64 44.572 716.64 43.984V43.746C716.64 43.172 717.102 42.85 718.04 42.85H719.188V43.816C719.188 44.502 718.544 44.866 717.746 44.866ZM725.546 46H726.834V44.572H725.448V40.12H726.946V38.692H725.448V36.69H723.838V37.936C723.838 38.44 723.67 38.692 723.138 38.692H722.578V40.12H723.656V44.138C723.656 45.328 724.314 46 725.546 46ZM729.556 37.628C730.284 37.628 730.606 37.25 730.606 36.732V36.452C730.606 35.934 730.284 35.556 729.556 35.556C728.814 35.556 728.506 35.934 728.506 36.452V36.732C728.506 37.25 728.814 37.628 729.556 37.628ZM728.66 46H730.452V38.692H728.66V46ZM735.587 46.168C737.687 46.168 738.989 44.684 738.989 42.332C738.989 39.994 737.687 38.524 735.587 38.524C733.501 38.524 732.199 39.994 732.199 42.332C732.199 44.684 733.501 46.168 735.587 46.168ZM735.587 44.726C734.663 44.726 734.075 44.124 734.075 43.018V41.66C734.075 40.568 734.663 39.966 735.587 39.966C736.525 39.966 737.113 40.568 737.113 41.66V43.018C737.113 44.124 736.525 44.726 735.587 44.726ZM742.53 46V41.17C742.53 40.386 743.244 39.994 743.986 39.994C744.84 39.994 745.19 40.526 745.19 41.562V46H746.982V41.38C746.982 39.56 746.142 38.524 744.644 38.524C743.51 38.524 742.894 39.126 742.6 39.91H742.53V38.692H740.738V46H742.53ZM751.522 46.168C753.342 46.168 754.532 45.188 754.532 43.774C754.532 42.556 753.762 41.842 752.166 41.618L751.424 41.52C750.738 41.408 750.472 41.184 750.472 40.694C750.472 40.246 750.808 39.938 751.578 39.938C752.292 39.938 752.908 40.274 753.328 40.722L754.378 39.672C753.678 38.944 752.95 38.524 751.522 38.524C749.856 38.524 748.75 39.42 748.75 40.834C748.75 42.164 749.618 42.85 751.186 43.046L751.914 43.144C752.558 43.228 752.81 43.494 752.81 43.914C752.81 44.432 752.446 44.754 751.592 44.754C750.766 44.754 750.122 44.376 749.59 43.76L748.498 44.824C749.226 45.664 750.136 46.168 751.522 46.168Z" fill="black"/>
<rect x="32.5" y="202.5" width="255" height="119" fill="#BE95FF" stroke="#491D8B"/>
<path d="M68.192 251.256H65.624V249.216C69.296 248.712 71.6 245.736 71.6 240.624C71.6 235.008 68.816 231.96 64.496 231.96C60.176 231.96 57.392 235.008 57.392 240.624C57.392 245.88 59.84 248.904 63.704 249.264V250.968C63.704 252.096 64.4 252.936 65.72 252.936H68.192V251.256ZM64.496 247.488C61.592 247.488 59.552 245.328 59.552 242.016V239.232C59.552 235.92 61.592 233.76 64.496 233.76C67.4 233.76 69.44 235.92 69.44 239.232V242.016C69.44 245.328 67.4 247.488 64.496 247.488ZM75.9922 233.712C76.8082 233.712 77.1682 233.28 77.1682 232.632V232.32C77.1682 231.672 76.8082 231.24 75.9922 231.24C75.1762 231.24 74.8162 231.672 74.8162 232.32V232.632C74.8162 233.28 75.1762 233.712 75.9922 233.712ZM75.0322 249H76.9522V236.616H75.0322V249ZM84.7522 249.288C87.5842 249.288 89.3362 247.824 89.3362 245.424C89.3362 243.552 88.2802 242.352 85.5442 241.944L84.5842 241.8C83.0482 241.56 82.2082 241.08 82.2082 239.88C82.2082 238.704 83.0482 237.96 84.6322 237.96C86.2162 237.96 87.2722 238.704 87.8242 239.472L89.0962 238.32C88.0882 237.072 86.7682 236.328 84.7762 236.328C82.2562 236.328 80.3602 237.528 80.3602 239.976C80.3602 242.28 82.0642 243.216 84.3442 243.552L85.3282 243.696C86.9602 243.936 87.4882 244.68 87.4882 245.64C87.4882 246.912 86.5282 247.656 84.8962 247.656C83.3362 247.656 82.1842 246.96 81.2242 245.76L79.8562 246.864C80.9602 248.328 82.4722 249.288 84.7522 249.288ZM92.7275 249H94.6475V244.584L96.4955 242.688L100.6 249H102.928L97.8875 241.512L102.472 236.616H100.144L96.6395 240.384L94.7435 242.496H94.6475V231.24H92.7275V249ZM106.344 233.712C107.16 233.712 107.52 233.28 107.52 232.632V232.32C107.52 231.672 107.16 231.24 106.344 231.24C105.528 231.24 105.168 231.672 105.168 232.32V232.632C105.168 233.28 105.528 233.712 106.344 233.712ZM105.384 249H107.304V236.616H105.384V249ZM116.52 249V247.32H114V238.296H116.712V236.616H114V233.184H112.272V235.488C112.272 236.328 112.008 236.616 111.192 236.616H110.04V238.296H112.08V246.96C112.08 248.16 112.8 249 114.12 249H116.52ZM131.926 249.288C136.246 249.288 139.03 246.24 139.03 240.624C139.03 235.008 136.246 231.96 131.926 231.96C127.606 231.96 124.822 235.008 124.822 240.624C124.822 246.24 127.606 249.288 131.926 249.288ZM131.926 247.488C129.022 247.488 126.982 245.328 126.982 242.016V239.232C126.982 235.92 129.022 233.76 131.926 233.76C134.83 233.76 136.87 235.92 136.87 239.232V242.016C136.87 245.328 134.83 247.488 131.926 247.488ZM142.462 253.8H144.382V246.984H144.478C145.222 248.52 146.398 249.288 148.102 249.288C151.198 249.288 153.142 246.768 153.142 242.808C153.142 238.848 151.198 236.328 148.102 236.328C146.398 236.328 145.126 237.072 144.478 238.632H144.382V236.616H142.462V253.8ZM147.574 247.56C145.822 247.56 144.382 246.648 144.382 245.04V240.432C144.382 239.064 145.822 238.056 147.574 238.056C149.734 238.056 151.078 239.544 151.078 241.752V243.864C151.078 246.072 149.734 247.56 147.574 247.56ZM161.379 249V247.32H158.859V238.296H161.571V236.616H158.859V233.184H157.131V235.488C157.131 236.328 156.867 236.616 156.051 236.616H154.899V238.296H156.939V246.96C156.939 248.16 157.659 249 158.979 249H161.379ZM165.617 233.712C166.433 233.712 166.793 233.28 166.793 232.632V232.32C166.793 231.672 166.433 231.24 165.617 231.24C164.801 231.24 164.441 231.672 164.441 232.32V232.632C164.441 233.28 164.801 233.712 165.617 233.712ZM164.657 249H166.577V236.616H164.657V249ZM172.577 249V240.408C172.577 238.824 174.017 238.056 175.529 238.056C177.353 238.056 178.193 239.184 178.193 241.392V249H180.113V240.408C180.113 238.824 181.505 238.056 183.017 238.056C184.889 238.056 185.729 239.208 185.729 241.392V249H187.649V241.056C187.649 238.056 186.137 236.328 183.617 236.328C181.505 236.328 180.305 237.504 179.849 238.848H179.801C179.129 237.072 177.641 236.328 176.009 236.328C174.089 236.328 173.225 237.36 172.673 238.632H172.577V236.616H170.657V249H172.577ZM192.57 233.712C193.386 233.712 193.746 233.28 193.746 232.632V232.32C193.746 231.672 193.386 231.24 192.57 231.24C191.754 231.24 191.394 231.672 191.394 232.32V232.632C191.394 233.28 191.754 233.712 192.57 233.712ZM191.61 249H193.53V236.616H191.61V249ZM205.914 249V247.32H198.546L205.722 238.056V236.616H196.578V238.296H203.394L196.362 247.392V249H205.914ZM218.823 249V247.32H217.407V240.504C217.407 237.888 215.631 236.328 212.655 236.328C210.423 236.328 208.935 237.432 208.263 238.752L209.415 239.832C210.087 238.704 211.071 237.984 212.559 237.984C214.527 237.984 215.487 238.944 215.487 240.696V241.92H213.039C209.439 241.92 207.759 243.216 207.759 245.544C207.759 247.848 209.295 249.288 211.911 249.288C213.639 249.288 214.959 248.496 215.487 246.984H215.607C215.751 248.136 216.327 249 217.743 249H218.823ZM212.223 247.656C210.735 247.656 209.775 246.96 209.775 245.736V245.232C209.775 244.032 210.759 243.36 212.943 243.36H215.487V245.4C215.487 246.672 214.119 247.656 212.223 247.656ZM226.699 249V247.32H224.179V238.296H226.891V236.616H224.179V233.184H222.451V235.488C222.451 236.328 222.187 236.616 221.371 236.616H220.219V238.296H222.259V246.96C222.259 248.16 222.979 249 224.299 249H226.699ZM230.938 233.712C231.754 233.712 232.114 233.28 232.114 232.632V232.32C232.114 231.672 231.754 231.24 230.938 231.24C230.122 231.24 229.762 231.672 229.762 232.32V232.632C229.762 233.28 230.122 233.712 230.938 233.712ZM229.978 249H231.898V236.616H229.978V249ZM240.658 249.288C243.97 249.288 246.25 246.744 246.25 242.808C246.25 238.872 243.97 236.328 240.658 236.328C237.346 236.328 235.066 238.872 235.066 242.808C235.066 246.744 237.346 249.288 240.658 249.288ZM240.658 247.584C238.594 247.584 237.13 246.312 237.13 243.696V241.92C237.13 239.304 238.594 238.032 240.658 238.032C242.722 238.032 244.186 239.304 244.186 241.92V243.696C244.186 246.312 242.722 247.584 240.658 247.584ZM251.327 249V240.408C251.327 238.824 252.815 238.056 254.351 238.056C256.199 238.056 257.159 239.184 257.159 241.392V249H259.079V241.056C259.079 238.056 257.471 236.328 254.927 236.328C253.079 236.328 252.023 237.24 251.423 238.632H251.327V236.616H249.407V249H251.327Z" fill="#121619"/>
<rect x="608.5" y="202.5" width="255" height="119" fill="#BE95FF" stroke="#491D8B"/>
<path d="M644.192 251.256H641.624V249.216C645.296 248.712 647.6 245.736 647.6 240.624C647.6 235.008 644.816 231.96 640.496 231.96C636.176 231.96 633.392 235.008 633.392 240.624C633.392 245.88 635.84 248.904 639.704 249.264V250.968C639.704 252.096 640.4 252.936 641.72 252.936H644.192V251.256ZM640.496 247.488C637.592 247.488 635.552 245.328 635.552 242.016V239.232C635.552 235.92 637.592 233.76 640.496 233.76C643.4 233.76 645.44 235.92 645.44 239.232V242.016C645.44 245.328 643.4 247.488 640.496 247.488ZM651.992 233.712C652.808 233.712 653.168 233.28 653.168 232.632V232.32C653.168 231.672 652.808 231.24 651.992 231.24C651.176 231.24 650.816 231.672 650.816 232.32V232.632C650.816 233.28 651.176 233.712 651.992 233.712ZM651.032 249H652.952V236.616H651.032V249ZM660.752 249.288C663.584 249.288 665.336 247.824 665.336 245.424C665.336 243.552 664.28 242.352 661.544 241.944L660.584 241.8C659.048 241.56 658.208 241.08 658.208 239.88C658.208 238.704 659.048 237.96 660.632 237.96C662.216 237.96 663.272 238.704 663.824 239.472L665.096 238.32C664.088 237.072 662.768 236.328 660.776 236.328C658.256 236.328 656.36 237.528 656.36 239.976C656.36 242.28 658.064 243.216 660.344 243.552L661.328 243.696C662.96 243.936 663.488 244.68 663.488 245.64C663.488 246.912 662.528 247.656 660.896 247.656C659.336 247.656 658.184 246.96 657.224 245.76L655.856 246.864C656.96 248.328 658.472 249.288 660.752 249.288ZM668.728 249H670.648V244.584L672.496 242.688L676.6 249H678.928L673.888 241.512L678.472 236.616H676.144L672.64 240.384L670.744 242.496H670.648V231.24H668.728V249ZM682.344 233.712C683.16 233.712 683.52 233.28 683.52 232.632V232.32C683.52 231.672 683.16 231.24 682.344 231.24C681.528 231.24 681.168 231.672 681.168 232.32V232.632C681.168 233.28 681.528 233.712 682.344 233.712ZM681.384 249H683.304V236.616H681.384V249ZM692.52 249V247.32H690V238.296H692.712V236.616H690V233.184H688.272V235.488C688.272 236.328 688.008 236.616 687.192 236.616H686.04V238.296H688.08V246.96C688.08 248.16 688.8 249 690.12 249H692.52ZM701.662 249H707.278C711.454 249 714.142 246.216 714.142 240.624C714.142 235.032 711.454 232.248 707.278 232.248H701.662V249ZM703.678 247.224V234.024H707.278C710.038 234.024 711.982 235.944 711.982 239.256V241.992C711.982 245.304 710.038 247.224 707.278 247.224H703.678ZM722.203 245.04L721.531 247.056H721.411L720.835 245.04L717.859 236.616H715.939L720.571 249.48L719.635 252.12H717.691V253.8H718.675C720.499 253.8 721.003 253.368 721.555 251.88L727.099 236.616H725.203L722.203 245.04ZM731.468 249V240.408C731.468 238.824 732.956 238.056 734.492 238.056C736.34 238.056 737.3 239.184 737.3 241.392V249H739.22V241.056C739.22 238.056 737.612 236.328 735.068 236.328C733.22 236.328 732.164 237.24 731.564 238.632H731.468V236.616H729.548V249H731.468ZM753.268 249V247.32H751.852V240.504C751.852 237.888 750.076 236.328 747.1 236.328C744.868 236.328 743.38 237.432 742.708 238.752L743.86 239.832C744.532 238.704 745.516 237.984 747.004 237.984C748.972 237.984 749.932 238.944 749.932 240.696V241.92H747.484C743.884 241.92 742.204 243.216 742.204 245.544C742.204 247.848 743.74 249.288 746.356 249.288C748.084 249.288 749.404 248.496 749.932 246.984H750.052C750.196 248.136 750.772 249 752.188 249H753.268ZM746.668 247.656C745.18 247.656 744.22 246.96 744.22 245.736V245.232C744.22 244.032 745.204 243.36 747.388 243.36H749.932V245.4C749.932 246.672 748.564 247.656 746.668 247.656ZM757.929 249V240.408C757.929 238.824 759.369 238.056 760.881 238.056C762.705 238.056 763.545 239.184 763.545 241.392V249H765.465V240.408C765.465 238.824 766.857 238.056 768.369 238.056C770.241 238.056 771.081 239.208 771.081 241.392V249H773.001V241.056C773.001 238.056 771.489 236.328 768.969 236.328C766.857 236.328 765.657 237.504 765.201 238.848H765.153C764.481 237.072 762.993 236.328 761.361 236.328C759.441 236.328 758.577 237.36 758.025 238.632H757.929V236.616H756.009V249H757.929ZM777.922 233.712C778.738 233.712 779.098 233.28 779.098 232.632V232.32C779.098 231.672 778.738 231.24 777.922 231.24C777.106 231.24 776.746 231.672 776.746 232.32V232.632C776.746 233.28 777.106 233.712 777.922 233.712ZM776.962 249H778.882V236.616H776.962V249ZM787.57 249.288C789.922 249.288 791.53 248.136 792.322 246.36L790.93 245.424C790.258 246.84 789.13 247.584 787.57 247.584C785.29 247.584 784.114 246.024 784.114 243.864V241.752C784.114 239.592 785.29 238.032 787.57 238.032C789.082 238.032 790.138 238.776 790.594 240.048L792.202 239.232C791.482 237.528 790.018 236.328 787.57 236.328C784.09 236.328 782.05 238.848 782.05 242.808C782.05 246.768 784.09 249.288 787.57 249.288ZM798.752 249.288C801.584 249.288 803.336 247.824 803.336 245.424C803.336 243.552 802.28 242.352 799.544 241.944L798.584 241.8C797.048 241.56 796.208 241.08 796.208 239.88C796.208 238.704 797.048 237.96 798.632 237.96C800.216 237.96 801.272 238.704 801.824 239.472L803.096 238.32C802.088 237.072 800.768 236.328 798.776 236.328C796.256 236.328 794.36 237.528 794.36 239.976C794.36 242.28 796.064 243.216 798.344 243.552L799.328 243.696C800.96 243.936 801.488 244.68 801.488 245.64C801.488 246.912 800.528 247.656 798.896 247.656C797.336 247.656 796.184 246.96 795.224 245.76L793.856 246.864C794.96 248.328 796.472 249.288 798.752 249.288Z" fill="#121619"/>
<rect x="32.5" y="606.5" width="527" height="119" fill="#BE95FF" stroke="#491D8B"/>
<path d="M68.192 655.256H65.624V653.216C69.296 652.712 71.6 649.736 71.6 644.624C71.6 639.008 68.816 635.96 64.496 635.96C60.176 635.96 57.392 639.008 57.392 644.624C57.392 649.88 59.84 652.904 63.704 653.264V654.968C63.704 656.096 64.4 656.936 65.72 656.936H68.192V655.256ZM64.496 651.488C61.592 651.488 59.552 649.328 59.552 646.016V643.232C59.552 639.92 61.592 637.76 64.496 637.76C67.4 637.76 69.44 639.92 69.44 643.232V646.016C69.44 649.328 67.4 651.488 64.496 651.488ZM75.9922 637.712C76.8082 637.712 77.1682 637.28 77.1682 636.632V636.32C77.1682 635.672 76.8082 635.24 75.9922 635.24C75.1762 635.24 74.8162 635.672 74.8162 636.32V636.632C74.8162 637.28 75.1762 637.712 75.9922 637.712ZM75.0322 653H76.9522V640.616H75.0322V653ZM84.7522 653.288C87.5842 653.288 89.3362 651.824 89.3362 649.424C89.3362 647.552 88.2802 646.352 85.5442 645.944L84.5842 645.8C83.0482 645.56 82.2082 645.08 82.2082 643.88C82.2082 642.704 83.0482 641.96 84.6322 641.96C86.2162 641.96 87.2722 642.704 87.8242 643.472L89.0962 642.32C88.0882 641.072 86.7682 640.328 84.7762 640.328C82.2562 640.328 80.3602 641.528 80.3602 643.976C80.3602 646.28 82.0642 647.216 84.3442 647.552L85.3282 647.696C86.9602 647.936 87.4882 648.68 87.4882 649.64C87.4882 650.912 86.5282 651.656 84.8962 651.656C83.3362 651.656 82.1842 650.96 81.2242 649.76L79.8562 650.864C80.9602 652.328 82.4722 653.288 84.7522 653.288ZM92.7275 653H94.6475V648.584L96.4955 646.688L100.6 653H102.928L97.8875 645.512L102.472 640.616H100.144L96.6395 644.384L94.7435 646.496H94.6475V635.24H92.7275V653ZM106.344 637.712C107.16 637.712 107.52 637.28 107.52 636.632V636.32C107.52 635.672 107.16 635.24 106.344 635.24C105.528 635.24 105.168 635.672 105.168 636.32V636.632C105.168 637.28 105.528 637.712 106.344 637.712ZM105.384 653H107.304V640.616H105.384V653ZM116.52 653V651.32H114V642.296H116.712V640.616H114V637.184H112.272V639.488C112.272 640.328 112.008 640.616 111.192 640.616H110.04V642.296H112.08V650.96C112.08 652.16 112.8 653 114.12 653H116.52ZM138.262 653L132.406 636.248H129.838L123.982 653H126.022L127.702 648.056H134.47L136.15 653H138.262ZM133.966 646.28H128.182L131.014 638.12H131.134L133.966 646.28ZM145.501 653.288C147.829 653.288 149.605 652.136 150.397 650.456L149.029 649.472C148.381 650.84 147.181 651.608 145.621 651.608C143.317 651.608 141.949 650 141.949 647.864V647.288H150.853V646.376C150.853 642.872 148.813 640.328 145.501 640.328C142.141 640.328 139.933 642.872 139.933 646.808C139.933 650.744 142.141 653.288 145.501 653.288ZM145.501 641.936C147.469 641.936 148.789 643.4 148.789 645.584V645.848H141.949V645.68C141.949 643.52 143.413 641.936 145.501 641.936ZM155.937 653V644.6C155.937 643.424 157.185 642.536 159.249 642.536H160.377V640.616H159.633C157.617 640.616 156.489 641.72 156.057 642.896H155.937V640.616H154.017V653H155.937Z" fill="#121619"/>
<rect x="32.5" y="66.5" width="255" height="119" fill="#BE95FF" stroke="#491D8B"/>
<path d="M68.192 115.256H65.624V113.216C69.296 112.712 71.6 109.736 71.6 104.624C71.6 99.008 68.816 95.96 64.496 95.96C60.176 95.96 57.392 99.008 57.392 104.624C57.392 109.88 59.84 112.904 63.704 113.264V114.968C63.704 116.096 64.4 116.936 65.72 116.936H68.192V115.256ZM64.496 111.488C61.592 111.488 59.552 109.328 59.552 106.016V103.232C59.552 99.92 61.592 97.76 64.496 97.76C67.4 97.76 69.44 99.92 69.44 103.232V106.016C69.44 109.328 67.4 111.488 64.496 111.488ZM75.9922 97.712C76.8082 97.712 77.1682 97.28 77.1682 96.632V96.32C77.1682 95.672 76.8082 95.24 75.9922 95.24C75.1762 95.24 74.8162 95.672 74.8162 96.32V96.632C74.8162 97.28 75.1762 97.712 75.9922 97.712ZM75.0322 113H76.9522V100.616H75.0322V113ZM84.7522 113.288C87.5842 113.288 89.3362 111.824 89.3362 109.424C89.3362 107.552 88.2802 106.352 85.5442 105.944L84.5842 105.8C83.0482 105.56 82.2082 105.08 82.2082 103.88C82.2082 102.704 83.0482 101.96 84.6322 101.96C86.2162 101.96 87.2722 102.704 87.8242 103.472L89.0962 102.32C88.0882 101.072 86.7682 100.328 84.7762 100.328C82.2562 100.328 80.3602 101.528 80.3602 103.976C80.3602 106.28 82.0642 107.216 84.3442 107.552L85.3282 107.696C86.9602 107.936 87.4882 108.68 87.4882 109.64C87.4882 110.912 86.5282 111.656 84.8962 111.656C83.3362 111.656 82.1842 110.96 81.2242 109.76L79.8562 110.864C80.9602 112.328 82.4722 113.288 84.7522 113.288ZM92.7275 113H94.6475V108.584L96.4955 106.688L100.6 113H102.928L97.8875 105.512L102.472 100.616H100.144L96.6395 104.384L94.7435 106.496H94.6475V95.24H92.7275V113ZM106.344 97.712C107.16 97.712 107.52 97.28 107.52 96.632V96.32C107.52 95.672 107.16 95.24 106.344 95.24C105.528 95.24 105.168 95.672 105.168 96.32V96.632C105.168 97.28 105.528 97.712 106.344 97.712ZM105.384 113H107.304V100.616H105.384V113ZM116.52 113V111.32H114V102.296H116.712V100.616H114V97.184H112.272V99.488C112.272 100.328 112.008 100.616 111.192 100.616H110.04V102.296H112.08V110.96C112.08 112.16 112.8 113 114.12 113H116.52ZM135.838 113H138.166V96.248H136.198V110.192H136.126L134.11 106.472L127.99 96.248H125.662V113H127.63V99.056H127.702L129.718 102.776L135.838 113ZM152.518 113V111.32H151.102V104.504C151.102 101.888 149.326 100.328 146.35 100.328C144.118 100.328 142.63 101.432 141.958 102.752L143.11 103.832C143.782 102.704 144.766 101.984 146.254 101.984C148.222 101.984 149.182 102.944 149.182 104.696V105.92H146.734C143.134 105.92 141.454 107.216 141.454 109.544C141.454 111.848 142.99 113.288 145.606 113.288C147.334 113.288 148.654 112.496 149.182 110.984H149.302C149.446 112.136 150.022 113 151.438 113H152.518ZM145.918 111.656C144.43 111.656 143.47 110.96 143.47 109.736V109.232C143.47 108.032 144.454 107.36 146.638 107.36H149.182V109.4C149.182 110.672 147.814 111.656 145.918 111.656ZM160.395 113V111.32H157.875V102.296H160.587V100.616H157.875V97.184H156.147V99.488C156.147 100.328 155.883 100.616 155.067 100.616H153.915V102.296H155.955V110.96C155.955 112.16 156.675 113 157.995 113H160.395ZM171.305 113H173.225V100.616H171.305V109.184C171.305 110.816 169.817 111.56 168.305 111.56C166.457 111.56 165.473 110.432 165.473 108.224V100.616H163.553V108.56C163.553 111.56 165.185 113.288 167.729 113.288C169.793 113.288 170.729 112.16 171.209 110.984H171.305V113ZM179.233 113V104.6C179.233 103.424 180.481 102.536 182.545 102.536H183.673V100.616H182.929C180.913 100.616 179.785 101.72 179.353 102.896H179.233V100.616H177.313V113H179.233ZM190.665 113.288C192.993 113.288 194.769 112.136 195.561 110.456L194.193 109.472C193.545 110.84 192.345 111.608 190.785 111.608C188.481 111.608 187.113 110 187.113 107.864V107.288H196.017V106.376C196.017 102.872 193.977 100.328 190.665 100.328C187.305 100.328 185.097 102.872 185.097 106.808C185.097 110.744 187.305 113.288 190.665 113.288ZM190.665 101.936C192.633 101.936 193.953 103.4 193.953 105.584V105.848H187.113V105.68C187.113 103.52 188.577 101.936 190.665 101.936Z" fill="#121619"/>
<rect x="608.5" y="66.5" width="255" height="119" fill="#BE95FF" stroke="#491D8B"/>
<path d="M644.192 115.256H641.624V113.216C645.296 112.712 647.6 109.736 647.6 104.624C647.6 99.008 644.816 95.96 640.496 95.96C636.176 95.96 633.392 99.008 633.392 104.624C633.392 109.88 635.84 112.904 639.704 113.264V114.968C639.704 116.096 640.4 116.936 641.72 116.936H644.192V115.256ZM640.496 111.488C637.592 111.488 635.552 109.328 635.552 106.016V103.232C635.552 99.92 637.592 97.76 640.496 97.76C643.4 97.76 645.44 99.92 645.44 103.232V106.016C645.44 109.328 643.4 111.488 640.496 111.488ZM651.992 97.712C652.808 97.712 653.168 97.28 653.168 96.632V96.32C653.168 95.672 652.808 95.24 651.992 95.24C651.176 95.24 650.816 95.672 650.816 96.32V96.632C650.816 97.28 651.176 97.712 651.992 97.712ZM651.032 113H652.952V100.616H651.032V113ZM660.752 113.288C663.584 113.288 665.336 111.824 665.336 109.424C665.336 107.552 664.28 106.352 661.544 105.944L660.584 105.8C659.048 105.56 658.208 105.08 658.208 103.88C658.208 102.704 659.048 101.96 660.632 101.96C662.216 101.96 663.272 102.704 663.824 103.472L665.096 102.32C664.088 101.072 662.768 100.328 660.776 100.328C658.256 100.328 656.36 101.528 656.36 103.976C656.36 106.28 658.064 107.216 660.344 107.552L661.328 107.696C662.96 107.936 663.488 108.68 663.488 109.64C663.488 110.912 662.528 111.656 660.896 111.656C659.336 111.656 658.184 110.96 657.224 109.76L655.856 110.864C656.96 112.328 658.472 113.288 660.752 113.288ZM668.728 113H670.648V108.584L672.496 106.688L676.6 113H678.928L673.888 105.512L678.472 100.616H676.144L672.64 104.384L670.744 106.496H670.648V95.24H668.728V113ZM682.344 97.712C683.16 97.712 683.52 97.28 683.52 96.632V96.32C683.52 95.672 683.16 95.24 682.344 95.24C681.528 95.24 681.168 95.672 681.168 96.32V96.632C681.168 97.28 681.528 97.712 682.344 97.712ZM681.384 113H683.304V100.616H681.384V113ZM692.52 113V111.32H690V102.296H692.712V100.616H690V97.184H688.272V99.488C688.272 100.328 688.008 100.616 687.192 100.616H686.04V102.296H688.08V110.96C688.08 112.16 688.8 113 690.12 113H692.52ZM701.662 113H703.63V98.888H703.75L705.166 101.696L709.174 108.992L713.182 101.696L714.598 98.888H714.718V113H716.686V96.248H714.094L709.27 105.272H709.15L704.35 96.248H701.662V113ZM725.602 113.288C727.93 113.288 729.706 112.136 730.498 110.456L729.13 109.472C728.482 110.84 727.282 111.608 725.722 111.608C723.418 111.608 722.05 110 722.05 107.864V107.288H730.954V106.376C730.954 102.872 728.914 100.328 725.602 100.328C722.242 100.328 720.034 102.872 720.034 106.808C720.034 110.744 722.242 113.288 725.602 113.288ZM725.602 101.936C727.57 101.936 728.89 103.4 728.89 105.584V105.848H722.05V105.68C722.05 103.52 723.514 101.936 725.602 101.936ZM739.254 113V111.32H736.734V102.296H739.446V100.616H736.734V97.184H735.006V99.488C735.006 100.328 734.742 100.616 733.926 100.616H732.774V102.296H734.814V110.96C734.814 112.16 735.534 113 736.854 113H739.254ZM752.612 113V111.32H751.196V104.504C751.196 101.888 749.42 100.328 746.444 100.328C744.212 100.328 742.724 101.432 742.052 102.752L743.204 103.832C743.876 102.704 744.86 101.984 746.348 101.984C748.316 101.984 749.276 102.944 749.276 104.696V105.92H746.828C743.228 105.92 741.548 107.216 741.548 109.544C741.548 111.848 743.084 113.288 745.7 113.288C747.428 113.288 748.748 112.496 749.276 110.984H749.396C749.54 112.136 750.116 113 751.532 113H752.612ZM746.012 111.656C744.524 111.656 743.564 110.96 743.564 109.736V109.232C743.564 108.032 744.548 107.36 746.732 107.36H749.276V109.4C749.276 110.672 747.908 111.656 746.012 111.656ZM759.097 113V111.32H757.273V95.24H755.353V111.008C755.353 112.16 756.073 113 757.393 113H759.097Z" fill="#121619"/>
<rect x="304.5" y="66.5" width="255" height="119" fill="#BE95FF" stroke="#491D8B"/>
<path d="M340.192 115.256H337.624V113.216C341.296 112.712 343.6 109.736 343.6 104.624C343.6 99.008 340.816 95.96 336.496 95.96C332.176 95.96 329.392 99.008 329.392 104.624C329.392 109.88 331.84 112.904 335.704 113.264V114.968C335.704 116.096 336.4 116.936 337.72 116.936H340.192V115.256ZM336.496 111.488C333.592 111.488 331.552 109.328 331.552 106.016V103.232C331.552 99.92 333.592 97.76 336.496 97.76C339.4 97.76 341.44 99.92 341.44 103.232V106.016C341.44 109.328 339.4 111.488 336.496 111.488ZM347.992 97.712C348.808 97.712 349.168 97.28 349.168 96.632V96.32C349.168 95.672 348.808 95.24 347.992 95.24C347.176 95.24 346.816 95.672 346.816 96.32V96.632C346.816 97.28 347.176 97.712 347.992 97.712ZM347.032 113H348.952V100.616H347.032V113ZM356.752 113.288C359.584 113.288 361.336 111.824 361.336 109.424C361.336 107.552 360.28 106.352 357.544 105.944L356.584 105.8C355.048 105.56 354.208 105.08 354.208 103.88C354.208 102.704 355.048 101.96 356.632 101.96C358.216 101.96 359.272 102.704 359.824 103.472L361.096 102.32C360.088 101.072 358.768 100.328 356.776 100.328C354.256 100.328 352.36 101.528 352.36 103.976C352.36 106.28 354.064 107.216 356.344 107.552L357.328 107.696C358.96 107.936 359.488 108.68 359.488 109.64C359.488 110.912 358.528 111.656 356.896 111.656C355.336 111.656 354.184 110.96 353.224 109.76L351.856 110.864C352.96 112.328 354.472 113.288 356.752 113.288ZM364.728 113H366.648V108.584L368.496 106.688L372.6 113H374.928L369.888 105.512L374.472 100.616H372.144L368.64 104.384L366.744 106.496H366.648V95.24H364.728V113ZM378.344 97.712C379.16 97.712 379.52 97.28 379.52 96.632V96.32C379.52 95.672 379.16 95.24 378.344 95.24C377.528 95.24 377.168 95.672 377.168 96.32V96.632C377.168 97.28 377.528 97.712 378.344 97.712ZM377.384 113H379.304V100.616H377.384V113ZM388.52 113V111.32H386V102.296H388.712V100.616H386V97.184H384.272V99.488C384.272 100.328 384.008 100.616 383.192 100.616H382.04V102.296H384.08V110.96C384.08 112.16 384.8 113 386.12 113H388.52ZM399.678 113V105.416H406.95V103.64H399.678V98.024H407.646V96.248H397.662V113H399.678ZM411.836 97.712C412.652 97.712 413.012 97.28 413.012 96.632V96.32C413.012 95.672 412.652 95.24 411.836 95.24C411.02 95.24 410.66 95.672 410.66 96.32V96.632C410.66 97.28 411.02 97.712 411.836 97.712ZM410.876 113H412.796V100.616H410.876V113ZM418.796 113V104.408C418.796 102.824 420.284 102.056 421.82 102.056C423.668 102.056 424.628 103.184 424.628 105.392V113H426.548V105.056C426.548 102.056 424.94 100.328 422.396 100.328C420.548 100.328 419.492 101.24 418.892 102.632H418.796V100.616H416.876V113H418.796ZM440.597 113V111.32H439.181V104.504C439.181 101.888 437.405 100.328 434.429 100.328C432.197 100.328 430.709 101.432 430.037 102.752L431.189 103.832C431.861 102.704 432.845 101.984 434.333 101.984C436.301 101.984 437.261 102.944 437.261 104.696V105.92H434.813C431.213 105.92 429.533 107.216 429.533 109.544C429.533 111.848 431.069 113.288 433.685 113.288C435.413 113.288 436.733 112.496 437.261 110.984H437.381C437.525 112.136 438.101 113 439.517 113H440.597ZM433.997 111.656C432.509 111.656 431.549 110.96 431.549 109.736V109.232C431.549 108.032 432.533 107.36 434.717 107.36H437.261V109.4C437.261 110.672 435.893 111.656 433.997 111.656ZM445.257 113V104.408C445.257 102.824 446.745 102.056 448.281 102.056C450.129 102.056 451.089 103.184 451.089 105.392V113H453.009V105.056C453.009 102.056 451.401 100.328 448.857 100.328C447.009 100.328 445.953 101.24 445.353 102.632H445.257V100.616H443.337V113H445.257ZM461.586 113.288C463.938 113.288 465.546 112.136 466.338 110.36L464.946 109.424C464.274 110.84 463.146 111.584 461.586 111.584C459.306 111.584 458.13 110.024 458.13 107.864V105.752C458.13 103.592 459.306 102.032 461.586 102.032C463.098 102.032 464.154 102.776 464.61 104.048L466.218 103.232C465.498 101.528 464.034 100.328 461.586 100.328C458.105 100.328 456.066 102.848 456.066 106.808C456.066 110.768 458.105 113.288 461.586 113.288ZM473.563 113.288C475.891 113.288 477.667 112.136 478.459 110.456L477.091 109.472C476.443 110.84 475.243 111.608 473.683 111.608C471.379 111.608 470.011 110 470.011 107.864V107.288H478.915V106.376C478.915 102.872 476.875 100.328 473.563 100.328C470.203 100.328 467.995 102.872 467.995 106.808C467.995 110.744 470.203 113.288 473.563 113.288ZM473.563 101.936C475.531 101.936 476.851 103.4 476.851 105.584V105.848H470.011V105.68C470.011 103.52 471.475 101.936 473.563 101.936Z" fill="#121619"/>
<rect x="608.5" y="606.5" width="119" height="119" fill="#BE95FF" stroke="#491D8B"/>
<path d="M640.16 653V651.32H637.808V637.928H640.16V636.248H633.44V637.928H635.792V651.32H633.44V653H640.16ZM643.841 653H651.449C653.921 653 655.769 650.912 655.769 648.152C655.769 645.368 653.681 644.336 652.481 644.264V644.12C653.585 643.952 655.193 643.064 655.193 640.568C655.193 637.952 653.489 636.248 650.729 636.248H643.841V653ZM645.857 645.224H650.825C652.553 645.224 653.609 646.136 653.609 647.816V648.632C653.609 650.312 652.553 651.224 650.825 651.224H645.857V645.224ZM645.857 638.024H650.489C652.073 638.024 653.033 638.864 653.033 640.352V641.168C653.033 642.656 652.073 643.496 650.489 643.496H645.857V638.024ZM659.521 653H661.489V638.888H661.609L663.025 641.696L667.033 648.992L671.041 641.696L672.457 638.888H672.577V653H674.545V636.248H671.953L667.129 645.272H667.009L662.209 636.248H659.521V653Z" fill="#121619"/>
<rect x="744.5" y="606.5" width="119" height="119" fill="#BE95FF" stroke="#491D8B"/>
<path d="M782.832 653L776.976 636.248H774.408L768.552 653H770.592L772.272 648.056H779.04L780.72 653H782.832ZM778.536 646.28H772.752L775.584 638.12H775.704L778.536 646.28ZM795.215 655.256H792.647V653.216C796.319 652.712 798.623 649.736 798.623 644.624C798.623 639.008 795.839 635.96 791.519 635.96C787.199 635.96 784.415 639.008 784.415 644.624C784.415 649.88 786.863 652.904 790.727 653.264V654.968C790.727 656.096 791.423 656.936 792.743 656.936H795.215V655.256ZM791.519 651.488C788.615 651.488 786.575 649.328 786.575 646.016V643.232C786.575 639.92 788.615 637.76 791.519 637.76C794.423 637.76 796.463 639.92 796.463 643.232V646.016C796.463 649.328 794.423 651.488 791.519 651.488ZM812.747 638.024V636.248H800.075V638.024H805.403V653H807.419V638.024H812.747Z" fill="#121619"/>
<rect x="880.5" y="606.5" width="119" height="119" fill="#BE95FF" stroke="#491D8B"/>
<path d="M912.16 653V651.32H909.808V637.928H912.16V636.248H905.44V637.928H907.792V651.32H905.44V653H912.16ZM920.212 653.288C923.524 653.288 925.804 650.744 925.804 646.808C925.804 642.872 923.524 640.328 920.212 640.328C916.9 640.328 914.62 642.872 914.62 646.808C914.62 650.744 916.9 653.288 920.212 653.288ZM920.212 651.584C918.148 651.584 916.684 650.312 916.684 647.696V645.92C916.684 643.304 918.148 642.032 920.212 642.032C922.276 642.032 923.74 643.304 923.74 645.92V647.696C923.74 650.312 922.276 651.584 920.212 651.584ZM930.882 653V644.408C930.882 642.824 932.37 642.056 933.906 642.056C935.754 642.056 936.714 643.184 936.714 645.392V653H938.634V645.056C938.634 642.056 937.026 640.328 934.482 640.328C932.634 640.328 931.578 641.24 930.978 642.632H930.882V640.616H928.962V653H930.882ZM952.755 655.256H950.187V653.216C953.859 652.712 956.163 649.736 956.163 644.624C956.163 639.008 953.379 635.96 949.059 635.96C944.739 635.96 941.955 639.008 941.955 644.624C941.955 649.88 944.403 652.904 948.267 653.264V654.968C948.267 656.096 948.963 656.936 950.283 656.936H952.755V655.256ZM949.059 651.488C946.155 651.488 944.115 649.328 944.115 646.016V643.232C944.115 639.92 946.155 637.76 949.059 637.76C951.963 637.76 954.003 639.92 954.003 643.232V646.016C954.003 649.328 951.963 651.488 949.059 651.488Z" fill="#121619"/>
<rect x="1016.5" y="606.5" width="119" height="119" fill="#BE95FF" stroke="#491D8B"/>
<path d="M1043.26 653.288C1044.27 653.288 1044.73 652.712 1044.73 651.896V651.584C1044.73 650.768 1044.27 650.192 1043.26 650.192C1042.26 650.192 1041.8 650.768 1041.8 651.584V651.896C1041.8 652.712 1042.26 653.288 1043.26 653.288ZM1049.8 653.288C1050.81 653.288 1051.27 652.712 1051.27 651.896V651.584C1051.27 650.768 1050.81 650.192 1049.8 650.192C1048.8 650.192 1048.34 650.768 1048.34 651.584V651.896C1048.34 652.712 1048.8 653.288 1049.8 653.288ZM1056.34 653.288C1057.35 653.288 1057.81 652.712 1057.81 651.896V651.584C1057.81 650.768 1057.35 650.192 1056.34 650.192C1055.33 650.192 1054.88 650.768 1054.88 651.584V651.896C1054.88 652.712 1055.33 653.288 1056.34 653.288Z" fill="#121619"/>
<rect x="32.5" y="404.5" width="1103" height="119" fill="#BE95FF" stroke="#491D8B"/>
<path d="M68.192 453.256H65.624V451.216C69.296 450.712 71.6 447.736 71.6 442.624C71.6 437.008 68.816 433.96 64.496 433.96C60.176 433.96 57.392 437.008 57.392 442.624C57.392 447.88 59.84 450.904 63.704 451.264V452.968C63.704 454.096 64.4 454.936 65.72 454.936H68.192V453.256ZM64.496 449.488C61.592 449.488 59.552 447.328 59.552 444.016V441.232C59.552 437.92 61.592 435.76 64.496 435.76C67.4 435.76 69.44 437.92 69.44 441.232V444.016C69.44 447.328 67.4 449.488 64.496 449.488ZM75.9922 435.712C76.8082 435.712 77.1682 435.28 77.1682 434.632V434.32C77.1682 433.672 76.8082 433.24 75.9922 433.24C75.1762 433.24 74.8162 433.672 74.8162 434.32V434.632C74.8162 435.28 75.1762 435.712 75.9922 435.712ZM75.0322 451H76.9522V438.616H75.0322V451ZM84.7522 451.288C87.5842 451.288 89.3362 449.824 89.3362 447.424C89.3362 445.552 88.2802 444.352 85.5442 443.944L84.5842 443.8C83.0482 443.56 82.2082 443.08 82.2082 441.88C82.2082 440.704 83.0482 439.96 84.6322 439.96C86.2162 439.96 87.2722 440.704 87.8242 441.472L89.0962 440.32C88.0882 439.072 86.7682 438.328 84.7762 438.328C82.2562 438.328 80.3602 439.528 80.3602 441.976C80.3602 444.28 82.0642 445.216 84.3442 445.552L85.3282 445.696C86.9602 445.936 87.4882 446.68 87.4882 447.64C87.4882 448.912 86.5282 449.656 84.8962 449.656C83.3362 449.656 82.1842 448.96 81.2242 447.76L79.8562 448.864C80.9602 450.328 82.4722 451.288 84.7522 451.288ZM92.7275 451H94.6475V446.584L96.4955 444.688L100.6 451H102.928L97.8875 443.512L102.472 438.616H100.144L96.6395 442.384L94.7435 444.496H94.6475V433.24H92.7275V451ZM106.344 435.712C107.16 435.712 107.52 435.28 107.52 434.632V434.32C107.52 433.672 107.16 433.24 106.344 433.24C105.528 433.24 105.168 433.672 105.168 434.32V434.632C105.168 435.28 105.528 435.712 106.344 435.712ZM105.384 451H107.304V438.616H105.384V451ZM116.52 451V449.32H114V440.296H116.712V438.616H114V435.184H112.272V437.488C112.272 438.328 112.008 438.616 111.192 438.616H110.04V440.296H112.08V448.96C112.08 450.16 112.8 451 114.12 451H116.52ZM136.63 436.024V434.248H123.958V436.024H129.286V451H131.302V436.024H136.63ZM142.29 451.288C144.618 451.288 146.394 450.136 147.186 448.456L145.818 447.472C145.17 448.84 143.97 449.608 142.41 449.608C140.106 449.608 138.738 448 138.738 445.864V445.288H147.642V444.376C147.642 440.872 145.602 438.328 142.29 438.328C138.93 438.328 136.722 440.872 136.722 444.808C136.722 448.744 138.93 451.288 142.29 451.288ZM142.29 439.936C144.258 439.936 145.578 441.4 145.578 443.584V443.848H138.738V443.68C138.738 441.52 140.202 439.936 142.29 439.936ZM152.726 451V442.6C152.726 441.424 153.974 440.536 156.038 440.536H157.166V438.616H156.422C154.406 438.616 153.278 439.72 152.846 440.896H152.726V438.616H150.806V451H152.726ZM161.538 451V442.6C161.538 441.424 162.786 440.536 164.85 440.536H165.978V438.616H165.234C163.218 438.616 162.09 439.72 161.658 440.896H161.538V438.616H159.618V451H161.538ZM178.417 451V449.32H177.001V442.504C177.001 439.888 175.225 438.328 172.249 438.328C170.017 438.328 168.529 439.432 167.857 440.752L169.009 441.832C169.681 440.704 170.665 439.984 172.153 439.984C174.121 439.984 175.081 440.944 175.081 442.696V443.92H172.633C169.033 443.92 167.353 445.216 167.353 447.544C167.353 449.848 168.889 451.288 171.505 451.288C173.233 451.288 174.553 450.496 175.081 448.984H175.201C175.345 450.136 175.921 451 177.337 451H178.417ZM171.817 449.656C170.329 449.656 169.369 448.96 169.369 447.736V447.232C169.369 446.032 170.353 445.36 172.537 445.36H175.081V447.4C175.081 448.672 173.713 449.656 171.817 449.656Z" fill="#121619"/>
<rect x="304.5" y="202.5" width="255" height="119" fill="#BE95FF" stroke="#491D8B"/>
<path d="M340.192 251.256H337.624V249.216C341.296 248.712 343.6 245.736 343.6 240.624C343.6 235.008 340.816 231.96 336.496 231.96C332.176 231.96 329.392 235.008 329.392 240.624C329.392 245.88 331.84 248.904 335.704 249.264V250.968C335.704 252.096 336.4 252.936 337.72 252.936H340.192V251.256ZM336.496 247.488C333.592 247.488 331.552 245.328 331.552 242.016V239.232C331.552 235.92 333.592 233.76 336.496 233.76C339.4 233.76 341.44 235.92 341.44 239.232V242.016C341.44 245.328 339.4 247.488 336.496 247.488ZM347.992 233.712C348.808 233.712 349.168 233.28 349.168 232.632V232.32C349.168 231.672 348.808 231.24 347.992 231.24C347.176 231.24 346.816 231.672 346.816 232.32V232.632C346.816 233.28 347.176 233.712 347.992 233.712ZM347.032 249H348.952V236.616H347.032V249ZM356.752 249.288C359.584 249.288 361.336 247.824 361.336 245.424C361.336 243.552 360.28 242.352 357.544 241.944L356.584 241.8C355.048 241.56 354.208 241.08 354.208 239.88C354.208 238.704 355.048 237.96 356.632 237.96C358.216 237.96 359.272 238.704 359.824 239.472L361.096 238.32C360.088 237.072 358.768 236.328 356.776 236.328C354.256 236.328 352.36 237.528 352.36 239.976C352.36 242.28 354.064 243.216 356.344 243.552L357.328 243.696C358.96 243.936 359.488 244.68 359.488 245.64C359.488 246.912 358.528 247.656 356.896 247.656C355.336 247.656 354.184 246.96 353.224 245.76L351.856 246.864C352.96 248.328 354.472 249.288 356.752 249.288ZM364.728 249H366.648V244.584L368.496 242.688L372.6 249H374.928L369.888 241.512L374.472 236.616H372.144L368.64 240.384L366.744 242.496H366.648V231.24H364.728V249ZM378.344 233.712C379.16 233.712 379.52 233.28 379.52 232.632V232.32C379.52 231.672 379.16 231.24 378.344 231.24C377.528 231.24 377.168 231.672 377.168 232.32V232.632C377.168 233.28 377.528 233.712 378.344 233.712ZM377.384 249H379.304V236.616H377.384V249ZM388.52 249V247.32H386V238.296H388.712V236.616H386V233.184H384.272V235.488C384.272 236.328 384.008 236.616 383.192 236.616H382.04V238.296H384.08V246.96C384.08 248.16 384.8 249 386.12 249H388.52ZM397.662 249H399.63V234.888H399.75L401.166 237.696L405.174 244.992L409.182 237.696L410.598 234.888H410.718V249H412.686V232.248H410.094L405.27 241.272H405.15L400.35 232.248H397.662V249ZM427.026 249V247.32H425.61V240.504C425.61 237.888 423.834 236.328 420.858 236.328C418.626 236.328 417.138 237.432 416.466 238.752L417.618 239.832C418.29 238.704 419.274 237.984 420.762 237.984C422.73 237.984 423.69 238.944 423.69 240.696V241.92H421.242C417.642 241.92 415.962 243.216 415.962 245.544C415.962 247.848 417.498 249.288 420.114 249.288C421.842 249.288 423.162 248.496 423.69 246.984H423.81C423.954 248.136 424.53 249 425.946 249H427.026ZM420.426 247.656C418.938 247.656 417.978 246.96 417.978 245.736V245.232C417.978 244.032 418.962 243.36 421.146 243.36H423.69V245.4C423.69 246.672 422.322 247.656 420.426 247.656ZM434.375 249.288C436.727 249.288 438.335 248.136 439.127 246.36L437.735 245.424C437.063 246.84 435.935 247.584 434.375 247.584C432.095 247.584 430.919 246.024 430.919 243.864V241.752C430.919 239.592 432.095 238.032 434.375 238.032C435.887 238.032 436.943 238.776 437.399 240.048L439.007 239.232C438.287 237.528 436.823 236.328 434.375 236.328C430.895 236.328 428.855 238.848 428.855 242.808C428.855 246.768 430.895 249.288 434.375 249.288ZM441.837 249H443.757V240.408C443.757 238.824 445.245 238.056 446.781 238.056C448.629 238.056 449.589 239.184 449.589 241.392V249H451.509V241.056C451.509 238.056 449.901 236.328 447.357 236.328C445.509 236.328 444.453 237.24 443.853 238.632H443.757V231.24H441.837V249ZM456.438 233.712C457.254 233.712 457.614 233.28 457.614 232.632V232.32C457.614 231.672 457.254 231.24 456.438 231.24C455.622 231.24 455.262 231.672 455.262 232.32V232.632C455.262 233.28 455.622 233.712 456.438 233.712ZM455.478 249H457.398V236.616H455.478V249ZM463.398 249V240.408C463.398 238.824 464.886 238.056 466.422 238.056C468.27 238.056 469.23 239.184 469.23 241.392V249H471.15V241.056C471.15 238.056 469.542 236.328 466.998 236.328C465.15 236.328 464.094 237.24 463.494 238.632H463.398V236.616H461.478V249H463.398ZM479.774 249.288C482.102 249.288 483.878 248.136 484.67 246.456L483.302 245.472C482.654 246.84 481.454 247.608 479.894 247.608C477.59 247.608 476.222 246 476.222 243.864V243.288H485.126V242.376C485.126 238.872 483.086 236.328 479.774 236.328C476.414 236.328 474.206 238.872 474.206 242.808C474.206 246.744 476.414 249.288 479.774 249.288ZM479.774 237.936C481.742 237.936 483.062 239.4 483.062 241.584V241.848H476.222V241.68C476.222 239.52 477.686 237.936 479.774 237.936ZM339.376 277V275.224H332.248V260.248H330.232V277H339.376ZM346.485 277.288C348.813 277.288 350.589 276.136 351.381 274.456L350.013 273.472C349.365 274.84 348.165 275.608 346.605 275.608C344.301 275.608 342.933 274 342.933 271.864V271.288H351.837V270.376C351.837 266.872 349.797 264.328 346.485 264.328C343.125 264.328 340.917 266.872 340.917 270.808C340.917 274.744 343.125 277.288 346.485 277.288ZM346.485 265.936C348.453 265.936 349.773 267.4 349.773 269.584V269.848H342.933V269.68C342.933 267.52 344.397 265.936 346.485 265.936ZM365.081 277V275.32H363.665V268.504C363.665 265.888 361.889 264.328 358.913 264.328C356.681 264.328 355.193 265.432 354.521 266.752L355.673 267.832C356.345 266.704 357.329 265.984 358.817 265.984C360.785 265.984 361.745 266.944 361.745 268.696V269.92H359.297C355.697 269.92 354.017 271.216 354.017 273.544C354.017 275.848 355.553 277.288 358.169 277.288C359.897 277.288 361.217 276.496 361.745 274.984H361.865C362.009 276.136 362.585 277 364.001 277H365.081ZM358.481 275.656C356.993 275.656 356.033 274.96 356.033 273.736V273.232C356.033 272.032 357.017 271.36 359.201 271.36H361.745V273.4C361.745 274.672 360.377 275.656 358.481 275.656ZM369.741 277V268.6C369.741 267.424 370.989 266.536 373.053 266.536H374.181V264.616H373.437C371.421 264.616 370.293 265.72 369.861 266.896H369.741V264.616H367.821V277H369.741ZM378.554 277V268.408C378.554 266.824 380.042 266.056 381.578 266.056C383.426 266.056 384.386 267.184 384.386 269.392V277H386.306V269.056C386.306 266.056 384.698 264.328 382.154 264.328C380.306 264.328 379.25 265.24 378.65 266.632H378.554V264.616H376.634V277H378.554ZM391.234 261.712C392.05 261.712 392.41 261.28 392.41 260.632V260.32C392.41 259.672 392.05 259.24 391.234 259.24C390.418 259.24 390.058 259.672 390.058 260.32V260.632C390.058 261.28 390.418 261.712 391.234 261.712ZM390.274 277H392.194V264.616H390.274V277ZM398.194 277V268.408C398.194 266.824 399.682 266.056 401.218 266.056C403.066 266.056 404.026 267.184 404.026 269.392V277H405.946V269.056C405.946 266.056 404.338 264.328 401.794 264.328C399.946 264.328 398.89 265.24 398.29 266.632H398.194V264.616H396.274V277H398.194ZM420.355 278.368C420.355 276.328 419.035 275.08 415.963 275.08H413.323C412.195 275.08 411.427 274.888 411.427 274.144C411.427 273.376 412.243 272.968 413.059 272.752C413.419 272.824 413.851 272.872 414.259 272.872C417.091 272.872 418.939 271.12 418.939 268.6C418.939 267.28 418.411 266.176 417.523 265.408V264.616H419.875V262.936H418.027C416.995 262.936 416.587 263.632 416.587 264.592V264.808C415.915 264.496 415.123 264.328 414.235 264.328C411.427 264.328 409.579 266.08 409.579 268.6C409.579 270.328 410.443 271.696 411.907 272.392V272.488C410.659 272.8 409.771 273.4 409.771 274.648C409.771 275.488 410.179 276.04 410.875 276.376V276.64C409.651 276.976 408.907 277.696 408.907 279.04C408.907 280.984 410.491 282.088 414.355 282.088C418.339 282.088 420.355 280.912 420.355 278.368ZM418.555 278.512C418.555 279.856 417.307 280.528 415.171 280.528H413.395C411.451 280.528 410.707 279.64 410.707 278.56C410.707 277.792 411.067 277.24 411.859 276.88H415.987C417.907 276.88 418.555 277.528 418.555 278.512ZM414.259 271.336C412.627 271.336 411.595 270.568 411.595 268.936V268.264C411.595 266.632 412.627 265.864 414.259 265.864C415.891 265.864 416.923 266.632 416.923 268.264V268.936C416.923 270.568 415.891 271.336 414.259 271.336Z" fill="#121619"/>
<rect x="880.5" y="202.5" width="255" height="119" fill="#BE95FF" stroke="#491D8B"/>
<path d="M916.192 251.256H913.624V249.216C917.296 248.712 919.6 245.736 919.6 240.624C919.6 235.008 916.816 231.96 912.496 231.96C908.176 231.96 905.392 235.008 905.392 240.624C905.392 245.88 907.84 248.904 911.704 249.264V250.968C911.704 252.096 912.4 252.936 913.72 252.936H916.192V251.256ZM912.496 247.488C909.592 247.488 907.552 245.328 907.552 242.016V239.232C907.552 235.92 909.592 233.76 912.496 233.76C915.4 233.76 917.44 235.92 917.44 239.232V242.016C917.44 245.328 915.4 247.488 912.496 247.488ZM923.992 233.712C924.808 233.712 925.168 233.28 925.168 232.632V232.32C925.168 231.672 924.808 231.24 923.992 231.24C923.176 231.24 922.816 231.672 922.816 232.32V232.632C922.816 233.28 923.176 233.712 923.992 233.712ZM923.032 249H924.952V236.616H923.032V249ZM932.752 249.288C935.584 249.288 937.336 247.824 937.336 245.424C937.336 243.552 936.28 242.352 933.544 241.944L932.584 241.8C931.048 241.56 930.208 241.08 930.208 239.88C930.208 238.704 931.048 237.96 932.632 237.96C934.216 237.96 935.272 238.704 935.824 239.472L937.096 238.32C936.088 237.072 934.768 236.328 932.776 236.328C930.256 236.328 928.36 237.528 928.36 239.976C928.36 242.28 930.064 243.216 932.344 243.552L933.328 243.696C934.96 243.936 935.488 244.68 935.488 245.64C935.488 246.912 934.528 247.656 932.896 247.656C931.336 247.656 930.184 246.96 929.224 245.76L927.856 246.864C928.96 248.328 930.472 249.288 932.752 249.288ZM940.728 249H942.648V244.584L944.496 242.688L948.6 249H950.928L945.888 241.512L950.472 236.616H948.144L944.64 240.384L942.744 242.496H942.648V231.24H940.728V249ZM954.344 233.712C955.16 233.712 955.52 233.28 955.52 232.632V232.32C955.52 231.672 955.16 231.24 954.344 231.24C953.528 231.24 953.168 231.672 953.168 232.32V232.632C953.168 233.28 953.528 233.712 954.344 233.712ZM953.384 249H955.304V236.616H953.384V249ZM964.52 249V247.32H962V238.296H964.712V236.616H962V233.184H960.272V235.488C960.272 236.328 960.008 236.616 959.192 236.616H958.04V238.296H960.08V246.96C960.08 248.16 960.8 249 962.12 249H964.52ZM983.886 249V247.224H975.678V241.416H983.406V239.64H975.678V234.024H983.886V232.248H973.662V249H983.886ZM985.926 249H988.062L991.542 244.152H991.614L994.83 249H997.086L992.622 242.616L996.99 236.616H994.854L991.59 241.224H991.518L988.374 236.616H986.118L990.51 242.76L985.926 249ZM999.626 253.8H1001.55V246.984H1001.64C1002.39 248.52 1003.56 249.288 1005.27 249.288C1008.36 249.288 1010.31 246.768 1010.31 242.808C1010.31 238.848 1008.36 236.328 1005.27 236.328C1003.56 236.328 1002.29 237.072 1001.64 238.632H1001.55V236.616H999.626V253.8ZM1004.74 247.56C1002.99 247.56 1001.55 246.648 1001.55 245.04V240.432C1001.55 239.064 1002.99 238.056 1004.74 238.056C1006.9 238.056 1008.24 239.544 1008.24 241.752V243.864C1008.24 246.072 1006.9 247.56 1004.74 247.56ZM1018.2 249.288C1020.53 249.288 1022.31 248.136 1023.1 246.456L1021.73 245.472C1021.08 246.84 1019.88 247.608 1018.32 247.608C1016.02 247.608 1014.65 246 1014.65 243.864V243.288H1023.56V242.376C1023.56 238.872 1021.52 236.328 1018.2 236.328C1014.84 236.328 1012.64 238.872 1012.64 242.808C1012.64 246.744 1014.84 249.288 1018.2 249.288ZM1018.2 237.936C1020.17 237.936 1021.49 239.4 1021.49 241.584V241.848H1014.65V241.68C1014.65 239.52 1016.12 237.936 1018.2 237.936ZM1028.64 249V240.6C1028.64 239.424 1029.89 238.536 1031.95 238.536H1033.08V236.616H1032.34C1030.32 236.616 1029.19 237.72 1028.76 238.896H1028.64V236.616H1026.72V249H1028.64ZM1036.49 233.712C1037.31 233.712 1037.67 233.28 1037.67 232.632V232.32C1037.67 231.672 1037.31 231.24 1036.49 231.24C1035.68 231.24 1035.32 231.672 1035.32 232.32V232.632C1035.32 233.28 1035.68 233.712 1036.49 233.712ZM1035.53 249H1037.45V236.616H1035.53V249ZM1043.45 249V240.408C1043.45 238.824 1044.89 238.056 1046.4 238.056C1048.23 238.056 1049.07 239.184 1049.07 241.392V249H1050.99V240.408C1050.99 238.824 1052.38 238.056 1053.89 238.056C1055.76 238.056 1056.6 239.208 1056.6 241.392V249H1058.52V241.056C1058.52 238.056 1057.01 236.328 1054.49 236.328C1052.38 236.328 1051.18 237.504 1050.72 238.848H1050.68C1050 237.072 1048.52 236.328 1046.88 236.328C1044.96 236.328 1044.1 237.36 1043.55 238.632H1043.45V236.616H1041.53V249H1043.45ZM1067.14 249.288C1069.47 249.288 1071.25 248.136 1072.04 246.456L1070.67 245.472C1070.02 246.84 1068.82 247.608 1067.26 247.608C1064.96 247.608 1063.59 246 1063.59 243.864V243.288H1072.49V242.376C1072.49 238.872 1070.45 236.328 1067.14 236.328C1063.78 236.328 1061.57 238.872 1061.57 242.808C1061.57 246.744 1063.78 249.288 1067.14 249.288ZM1067.14 237.936C1069.11 237.936 1070.43 239.4 1070.43 241.584V241.848H1063.59V241.68C1063.59 239.52 1065.05 237.936 1067.14 237.936ZM1077.58 249V240.408C1077.58 238.824 1079.07 238.056 1080.6 238.056C1082.45 238.056 1083.41 239.184 1083.41 241.392V249H1085.33V241.056C1085.33 238.056 1083.72 236.328 1081.18 236.328C1079.33 236.328 1078.27 237.24 1077.67 238.632H1077.58V236.616H1075.66V249H1077.58ZM1094.43 249V247.32H1091.91V238.296H1094.63V236.616H1091.91V233.184H1090.19V235.488C1090.19 236.328 1089.92 236.616 1089.11 236.616H1087.95V238.296H1089.99V246.96C1089.99 248.16 1090.71 249 1092.03 249H1094.43ZM1101.43 249.288C1104.26 249.288 1106.02 247.824 1106.02 245.424C1106.02 243.552 1104.96 242.352 1102.22 241.944L1101.26 241.8C1099.73 241.56 1098.89 241.08 1098.89 239.88C1098.89 238.704 1099.73 237.96 1101.31 237.96C1102.9 237.96 1103.95 238.704 1104.5 239.472L1105.78 238.32C1104.77 237.072 1103.45 236.328 1101.46 236.328C1098.94 236.328 1097.04 237.528 1097.04 239.976C1097.04 242.28 1098.74 243.216 1101.02 243.552L1102.01 243.696C1103.64 243.936 1104.17 244.68 1104.17 245.64C1104.17 246.912 1103.21 247.656 1101.58 247.656C1100.02 247.656 1098.86 246.96 1097.9 245.76L1096.54 246.864C1097.64 248.328 1099.15 249.288 1101.43 249.288Z" fill="#121619"/>
<defs>
<radialGradient id="paint0_radial_105_730" cx="0" cy="0" r="1" gradientUnits="userSpaceOnUse" gradientTransform="translate(1002.96 66.5704) rotate(12.2514) scale(23.7372 15.4849)">
<stop offset="0.16" stop-color="#010101" stop-opacity="0"/>
<stop offset="1" stop-color="#010101"/>
</radialGradient>
<radialGradient id="paint1_radial_105_730" cx="0" cy="0" r="1" gradientUnits="userSpaceOnUse" gradientTransform="translate(994.391 82.0076) scale(12.7639 7.75736)">
<stop stop-color="#010101" stop-opacity="0"/>
<stop offset="1" stop-color="#010101"/>
</radialGradient>
<radialGradient id="paint2_radial_105_730" cx="0" cy="0" r="1" gradientUnits="userSpaceOnUse" gradientTransform="translate(994.514 51.7704) scale(21.9705 16.6909)">
<stop offset="0.2" stop-color="#010101" stop-opacity="0"/>
<stop offset="1" stop-color="#010101"/>
</radialGradient>
<radialGradient id="paint3_radial_105_730" cx="0" cy="0" r="1" gradientUnits="userSpaceOnUse" gradientTransform="translate(980.918 40.7892) rotate(65.6411) scale(14.6727 20.8968)">
<stop offset="0.36" stop-color="#010101" stop-opacity="0"/>
<stop offset="1" stop-color="#010101"/>
</radialGradient>
<radialGradient id="paint4_radial_105_730" cx="0" cy="0" r="1" gradientUnits="userSpaceOnUse" gradientTransform="translate(829.51 -394.45) scale(389.6 386.746)">
<stop stop-color="#010101" stop-opacity="0"/>
<stop offset="0.37" stop-color="#010101"/>
</radialGradient>
</defs>
</svg>
